<svg viewBox="0 0 330 200" xmlns="http://www.w3.org/2000/svg"><g><g><g><g><g><line x1="52.25" y1="176" x2="47.25" y2="176" style="visibility: inherit;" fill="rgb(0, 0, 0)" stroke="rgb(204, 204, 204)" stroke-width="1px"></line><line x1="52.25" y1="150.85714285714286" x2="47.25" y2="150.85714285714286" style="visibility: inherit;" fill="rgb(0, 0, 0)" stroke="rgb(204, 204, 204)" stroke-width="1px"></line><line x1="52.25" y1="125.71428571428572" x2="47.25" y2="125.71428571428572" style="visibility: inherit;" fill="rgb(0, 0, 0)" stroke="rgb(204, 204, 204)" stroke-width="1px"></line><line x1="52.25" y1="100.57142857142857" x2="47.25" y2="100.57142857142857" style="visibility: inherit;" fill="rgb(0, 0, 0)" stroke="rgb(204, 204, 204)" stroke-width="1px"></line><line x1="52.25" y1="75.42857142857143" x2="47.25" y2="75.42857142857143" style="visibility: inherit;" fill="rgb(0, 0, 0)" stroke="rgb(204, 204, 204)" stroke-width="1px"></line><line x1="52.25" y1="50.28571428571428" x2="47.25" y2="50.28571428571428" style="visibility: inherit;" fill="rgb(0, 0, 0)" stroke="rgb(204, 204, 204)" stroke-width="1px"></line><line x1="52.25" y1="25.14285714285714" x2="47.25" y2="25.14285714285714" style="visibility: inherit;" fill="rgb(0, 0, 0)" stroke="rgb(204, 204, 204)" stroke-width="1px"></line><line x1="52.25" y1="0" x2="47.25" y2="0" style="visibility: inherit;" fill="rgb(0, 0, 0)" stroke="rgb(204, 204, 204)" stroke-width="1px"></line></g><g transform="translate(42.25, 0)"><text x="0" y="176" dx="0em" dy="0.3em" style="text-anchor: end; visibility: hidden; font-family: &quot;Helvetica Neue&quot;, sans-serif; font-size: 12px; font-weight: 200;" fill="rgb(50, 49, 63)" stroke="none" stroke-width="1px">-0.5</text><text x="0" y="150.85714285714286" dx="0em" dy="0.3em" style="text-anchor: end; visibility: inherit; font-family: &quot;Helvetica Neue&quot;, sans-serif; font-size: 12px; font-weight: 200;" fill="rgb(50, 49, 63)" stroke="none" stroke-width="1px">0</text><text x="0" y="125.71428571428572" dx="0em" dy="0.3em" style="text-anchor: end; visibility: inherit; font-family: &quot;Helvetica Neue&quot;, sans-serif; font-size: 12px; font-weight: 200;" fill="rgb(50, 49, 63)" stroke="none" stroke-width="1px">0.5</text><text x="0" y="100.57142857142857" dx="0em" dy="0.3em" style="text-anchor: end; visibility: inherit; font-family: &quot;Helvetica Neue&quot;, sans-serif; font-size: 12px; font-weight: 200;" fill="rgb(50, 49, 63)" stroke="none" stroke-width="1px">1</text><text x="0" y="75.42857142857143" dx="0em" dy="0.3em" style="text-anchor: end; visibility: inherit; font-family: &quot;Helvetica Neue&quot;, sans-serif; font-size: 12px; font-weight: 200;" fill="rgb(50, 49, 63)" stroke="none" stroke-width="1px">1.5</text><text x="0" y="50.28571428571428" dx="0em" dy="0.3em" style="text-anchor: end; visibility: inherit; font-family: &quot;Helvetica Neue&quot;, sans-serif; font-size: 12px; font-weight: 200;" fill="rgb(50, 49, 63)" stroke="none" stroke-width="1px">2</text><text x="0" y="25.14285714285714" dx="0em" dy="0.3em" style="text-anchor: end; visibility: inherit; font-family: &quot;Helvetica Neue&quot;, sans-serif; font-size: 12px; font-weight: 200;" fill="rgb(50, 49, 63)" stroke="none" stroke-width="1px">2.5</text><text x="0" y="0" dx="0em" dy="0.3em" style="text-anchor: end; visibility: hidden; font-family: &quot;Helvetica Neue&quot;, sans-serif; font-size: 12px; font-weight: 200;" fill="rgb(50, 49, 63)" stroke="none" stroke-width="1px">3</text></g><line x1="52.25" y1="0" x2="52.25" y2="176" fill="rgb(0, 0, 0)" stroke="rgb(204, 204, 204)" stroke-width="1px"></line></g></g><g transform="translate(52, 0)" clip-path="url(#clip_0)"><clipPath id="clip_0"><rect width="277" height="176"></rect></clipPath><g><g><g><line x1="0" y1="0" x2="0" y2="176" fill="rgb(0, 0, 0)" stroke="rgb(60, 60, 60)" stroke-width="1px" opacity="0.25"></line><line x1="27.775000000000002" y1="0" x2="27.775000000000002" y2="176" fill="rgb(0, 0, 0)" stroke="rgb(60, 60, 60)" stroke-width="1px" opacity="0.25"></line><line x1="55.550000000000004" y1="0" x2="55.550000000000004" y2="176" fill="rgb(0, 0, 0)" stroke="rgb(60, 60, 60)" stroke-width="1px" opacity="0.25"></line><line x1="83.325" y1="0" x2="83.325" y2="176" fill="rgb(0, 0, 0)" stroke="rgb(60, 60, 60)" stroke-width="1px" opacity="0.25"></line><line x1="111.10000000000001" y1="0" x2="111.10000000000001" y2="176" fill="rgb(0, 0, 0)" stroke="rgb(60, 60, 60)" stroke-width="1px" opacity="0.25"></line><line x1="138.875" y1="0" x2="138.875" y2="176" fill="rgb(0, 0, 0)" stroke="rgb(60, 60, 60)" stroke-width="1px" opacity="0.25"></line><line x1="166.65" y1="0" x2="166.65" y2="176" fill="rgb(0, 0, 0)" stroke="rgb(60, 60, 60)" stroke-width="1px" opacity="0.25"></line><line x1="194.42499999999998" y1="0" x2="194.42499999999998" y2="176" fill="rgb(0, 0, 0)" stroke="rgb(60, 60, 60)" stroke-width="1px" opacity="0.25"></line><line x1="222.20000000000002" y1="0" x2="222.20000000000002" y2="176" fill="rgb(0, 0, 0)" stroke="rgb(60, 60, 60)" stroke-width="1px" opacity="0.25"></line><line x1="249.975" y1="0" x2="249.975" y2="176" fill="rgb(0, 0, 0)" stroke="rgb(60, 60, 60)" stroke-width="1px" opacity="0.25"></line><line x1="277.75" y1="0" x2="277.75" y2="176" fill="rgb(0, 0, 0)" stroke="rgb(60, 60, 60)" stroke-width="1px" opacity="0.25"></line></g><g><line x1="0" y1="176" x2="277.75" y2="176" fill="rgb(0, 0, 0)" stroke="rgb(60, 60, 60)" stroke-width="1px" opacity="0.25"></line><line x1="0" y1="150.85714285714286" x2="277.75" y2="150.85714285714286" fill="rgb(0, 0, 0)" stroke="rgb(60, 60, 60)" stroke-width="1px" opacity="0.25"></line><line x1="0" y1="125.71428571428572" x2="277.75" y2="125.71428571428572" fill="rgb(0, 0, 0)" stroke="rgb(60, 60, 60)" stroke-width="1px" opacity="0.25"></line><line x1="0" y1="100.57142857142857" x2="277.75" y2="100.57142857142857" fill="rgb(0, 0, 0)" stroke="rgb(60, 60, 60)" stroke-width="1px" opacity="0.25"></line><line x1="0" y1="75.42857142857143" x2="277.75" y2="75.42857142857143" fill="rgb(0, 0, 0)" stroke="rgb(60, 60, 60)" stroke-width="1px" opacity="0.25"></line><line x1="0" y1="50.28571428571428" x2="277.75" y2="50.28571428571428" fill="rgb(0, 0, 0)" stroke="rgb(60, 60, 60)" stroke-width="1px" opacity="0.25"></line><line x1="0" y1="25.14285714285714" x2="277.75" y2="25.14285714285714" fill="rgb(0, 0, 0)" stroke="rgb(60, 60, 60)" stroke-width="1px" opacity="0.25"></line><line x1="0" y1="0" x2="277.75" y2="0" fill="rgb(0, 0, 0)" stroke="rgb(60, 60, 60)" stroke-width="1px" opacity="0.25"></line></g></g></g><g><g><line x1="0" y1="150.85714285714286" x2="277.75" y2="150.85714285714286" fill="rgb(0, 0, 0)" stroke="rgb(153, 153, 153)" stroke-width="1.5px"></line></g></g><g><g><line x1="27.775000000000002" y1="0" x2="27.775000000000002" y2="176" fill="rgb(0, 0, 0)" stroke="rgb(153, 153, 153)" stroke-width="1.5px"></line></g></g><g><g><g><g><g><path stroke="rgb(51, 187, 238)" stroke-width="2px" d="M28.052750000000003,34.408557346888955L28.608249999999998,58.21199199131557L28.7749,52.19104984828404L29.1082,76.68553924560547L29.997,51.92491694859096L30.1081,43.16161782400948L30.219199999999997,63.341224670410156L30.27475,41.69920567103793L30.385849999999998,28.818459647042403L30.719150000000003,38.411460876464844L30.7747,38.95452880859375L30.8858,46.54376438685824L31.38575,38.48008619035994L31.71905,35.15129089355469L31.7746,45.94112287248885L31.83015,25.24006434849332L31.8857,21.218074253627236L32.16345,35.856342860630576L32.60785,31.152823311941972L32.996700000000004,31.701478140694746L33.4411,21.75603485107422L33.607749999999996,25.299673897879472L33.6633,27.46955980573381L34.05215,55.70472826276506L34.3299,44.591779436383945L34.774300000000004,45.650004795619424L34.94095,49.3494655064174L34.9965,38.53203473772322L35.496449999999996,49.77017320905412L35.60755,51.273917606898706L35.66309999999999,35.367669241768965L36.1075,60.57553700038365L36.38525,53.634075709751684L36.551899999999996,49.065912519182476L37.051849999999995,37.038499014718184L37.1074,49.742010934012285L37.27405,55.40032632010325L37.60735,49.49817766462053L37.6629,58.10100337437221L37.94065,43.222773960658486L38.051750000000006,52.89653342110769L38.107299999999995,66.38906860351562L38.3295,46.08199419294084L38.38505,68.38805661882674L38.7739,54.4112298148019L39.2183,50.563758305140894L39.273849999999996,53.24316678728377L39.3294,51.156460898263106L39.5516,58.09951673235213L40.16265,71.09574726649693L40.49595,65.60589599609375L40.773700000000005,76.81316866193498L40.94035,68.33418382917131L41.60695,73.97718920026506L41.94025,73.17508588518416L42.217999999999996,80.12043162754604L42.38465,77.90448379516602L42.60685,72.087283543178L42.82905,71.37518201555525L42.940149999999996,64.01181411743164L43.9956,74.63454273768834L44.27334999999999,67.90173884800502L44.3289,73.9544939313616L44.606649999999995,77.55873162405832L44.828849999999996,72.70905358450754L44.8844,86.166622706822L44.9955,60.014173780168804L45.4399,60.5682476588658L45.49545,46.68756103515625L45.82875,65.93103899274553L45.8843,81.20190974644252L45.93985,64.88289642333984L46.106500000000004,68.31875991821289L46.60645,60.751158578055254L47.05085,67.31937081473215L47.93965,71.47617776053293L48.16185,68.96431023733957L48.49515,72.36051995413645L48.71735,51.959217616489966L48.828450000000004,62.48934282575334L49.49505,50.30760029384068L49.5506,51.065625871930806L50.439400000000006,71.55192456926619L51.16155,36.820502144949785L51.2171,65.59785134451731L51.328199999999995,74.58426066807338L51.6615,75.18580518450057L52.161449999999995,70.32648794991628L52.27255,52.871829986572266L52.328100000000006,64.82557678222656L52.49475,79.05979047502791L52.828050000000005,83.82507760184153L53.328,62.213690621512285L53.49465,63.35606711251394L53.5502,67.87586648123606L54.05015,63.723417554582866L54.1057,62.871883392333984L54.93895,70.88286972045898L55.05005,80.87572370256697L55.16115,76.71026066371373L55.93885,65.63688169206893L56.2166,73.06446293422154L56.3277,81.75887898036412L56.49435,67.55986513410295L56.93875,73.03687613351003L57.27205,57.63902936662947L57.38315,57.03497314453125L57.5498,66.37629427228654L57.8831,77.8540998186384L58.16085,71.01766858782088L58.2164,75.39252035958425L58.71635,70.12069593157088L58.82745,62.802904401506694L59.04965,61.15144893101284L59.105199999999996,69.21492331368582L59.382949999999994,65.7097031729562L59.60515,77.7478109087263L59.6607,76.62281254359654L59.938449999999996,77.31818335396902L60.04955,81.67271368844168L60.1051,81.61216299874441L60.2162,81.88136509486607L60.3273,79.69316591535295L60.382850000000005,76.32617950439453L60.6606,67.67148317609514L60.71615,76.68137305123464L61.216100000000004,69.16959871564592L61.5494,58.801091875348774L61.6605,76.2302371433803L61.938250000000004,61.16264670235769L62.216,63.80827604021346L62.327099999999994,76.54056767054966L62.9937,60.204487936837324L63.382549999999995,77.40864671979631L63.4381,72.97970635550364L63.5492,80.9598868233817L63.60475,77.53465162004744L63.6603,75.14733232770647L63.715849999999996,84.9546857561384L63.826950000000004,76.66417476109096L63.9936,70.60369273594448L64.2158,74.87452152797154L64.49355,49.1655055454799L64.6602,83.90506853376115L64.8824,75.61315482003347L65.04905,66.95135498046875L65.1046,80.71023886544363L65.2157,70.7706162588937L65.27125,61.450311933244976L65.4379,78.46518162318638L65.49345,84.66748809814453L65.6601,79.93315669468471L65.71565,68.82242584228516L65.99340000000001,89.82599203927177L66.04895,87.05540684291294L66.4378,85.08132607596262L66.60445,79.82473972865513L66.82665,61.647657666887554L66.9933,61.14189965384348L67.1044,64.24364035470144L67.21549999999999,76.12989480154856L67.43769999999999,55.07546506609236L67.65990000000001,75.37410518101284L67.82655,72.12456948416575L67.88210000000001,71.65364565168107L67.93765,57.658529554094585L68.3265,77.90558079310826L68.6598,76.70082528250559L68.7709,62.09473528180803L68.82645,68.77554266793386L69.04865,79.61520712716238L69.27085000000001,61.32521220615932L69.4375,73.76253128051758L69.49305,68.13521357945034L69.54860000000001,84.26804896763393L69.6597,73.28119495936802L69.7708,50.72000558035715L70.27075,76.19391632080078L70.32629999999999,70.00437818254744L70.49295000000001,68.08559690202986L70.5485,69.76568821498326L70.60405,80.31428854806082L70.71515,69.99095044817244L70.7707,79.90405327933176L71.104,71.58514622279576L71.32619999999999,76.27890069144114L71.38175,70.98367963518416L71.49285,72.88992636544363L71.60395,73.47161102294922L71.7706,74.1178866795131L71.82615,74.27490724836076L71.8817,75.33229337419783L71.93725,72.86231558663503L72.1039,83.60560607910156L72.32610000000001,69.15548760550364L72.49275,77.3081305367606L72.60385000000001,72.26175417218889L72.6594,76.90076065063477L72.71494999999999,68.44420732770647L73.04825000000001,72.84427206856863L73.10379999999999,80.40865434919084L73.38155,62.040730612618574L73.60375,67.57704544067383L73.7704,73.74180821010044L73.99260000000001,72.05195781162807L74.2148,69.8800277709961L74.3259,77.35637446812221L74.60365,74.71871185302734L74.77029999999999,69.39756447928293L75.93684999999999,82.8228530883789L76.04795,69.45668247767857L76.10350000000001,71.71978923252651L76.3257,82.64039775303432L76.4368,77.79120526994978L76.659,58.063909258161274L76.7701,63.77664293561662L76.88119999999999,67.2313711983817L77.2145,70.69521113804409L77.5478,69.42251368931362L77.77000000000001,61.202839987618574L78.15885,61.54424612862722L78.2144,63.727865491594585L78.26995,64.44659096854075L78.32549999999999,70.93324170793807L78.60324999999999,78.55326516287668L78.71435,65.67070879255022L78.88099999999999,59.00100925990513L78.93655,67.53296770368303L78.9921,75.416750226702L79.04765,72.7112775530134L79.49205,75.31830215454102L79.5476,72.53569793701172L79.71424999999999,74.24310030255998L80.1031,73.19089344569615L80.26974999999999,78.01974051339285L80.7697,63.18172836303711L80.88080000000001,54.12321090698242L80.93635,70.7499771118164L80.9919,83.36564527239119L81.15855,87.23477499825613L81.2141,71.24038314819336L81.4363,62.36336190359934L81.71405,61.97892107282365L81.7696,83.37651933942522L81.99180000000001,73.10521371023997L82.04735,78.45132228306362L82.10289999999999,79.57072176252092L82.15845,68.81531633649553L82.38064999999999,73.29901668003627L82.4362,75.5138315473284L82.60285,79.862181527274L82.6584,70.83422415597097L83.1028,64.81397138323103L83.325,79.43719373430525L83.4361,75.43013599940709L83.5472,77.37808663504465L83.60275,69.85360390799387L83.9916,84.45747593470982L84.04714999999999,72.40965706961497L84.1027,84.48065076555525L84.26935,61.306227547781816L84.71375,63.28414481026785L84.82485,82.154175894601L85.04705000000001,74.61434718540737L85.1026,79.84843008858816L85.26925,72.75348499843052L85.38035,63.72853088378906L85.76920000000001,61.15908595493862L86.38025,67.71756907871791L86.49135,90.68919154575893L86.82464999999999,77.95391464233398L86.8802,66.95274571010044L86.9913,79.98813847133091L87.1024,75.20622852870396L87.3246,73.42547716413225L87.54679999999999,78.42034857613699L87.6579,72.48885672433035L87.93565,73.30520302908762L87.9912,68.63353838239397L88.04675,65.44346836635044L88.49115,54.5003923688616L88.82445,86.81817953927175L89.04665,60.64958735874721L89.1022,75.45378439767019L89.15775000000001,64.33966064453125L89.65769999999999,68.16576167515346L89.7688,67.61439732142857L89.93544999999999,63.90379878452846L90.26875,65.70048359462193L90.3243,56.66960688999721L90.71315,72.45718165806362L90.82425,78.22485515049526L91.93525000000001,68.64230837140764L91.9908,47.02994428362166L92.04634999999999,77.2779541015625L92.21300000000001,80.83984647478377L92.26855,72.78594534737722L92.32409999999999,78.51265825544084L93.32400000000001,58.77093941824778L93.49065,78.54189954485213L93.60175000000001,64.14167949131557L93.9906,71.75143432617188L94.04615,77.33448845999582L94.37944999999999,68.88461303710938L94.49055,66.67494746616909L94.7683,82.18339920043945L94.8794,62.22936030796596L94.99050000000001,57.44562802995955L95.2127,62.69117845807756L95.7682,68.60304423740932L96.2126,72.77332087925502L96.26815,70.70235061645508L96.3237,64.1784439086914L96.4348,84.30194200788225L96.60145,77.10667855398997L96.8792,56.13620213099888L97.04585,61.4323763166155L97.37915000000001,67.2869644165039L97.49024999999999,80.65697751726424L97.60135,74.12226867675781L97.65690000000001,72.68963732038225L97.82355,70.56981767926897L97.93465,59.53133283342635L98.10130000000001,75.09923226492747L98.5457,73.8802637372698L98.93455,79.45571681431362L99.26785,61.209344046456465L99.49005000000001,51.19612067086355L99.5456,67.89883749825613L99.60114999999999,69.24957166399275L99.6567,75.40613392421177L99.99,74.08859743390764L100.15665,62.40124729701451L100.54549999999999,82.57080732073103L100.6566,73.58373260498047L100.82325,67.87201799665178L100.87880000000001,70.81123515537807L101.04545,57.88383374895369L101.37875,56.91574205671037L101.48985,82.2825905936105L101.6565,79.70511300223215L101.82315,77.61222076416016L101.87870000000001,86.88301031930105L101.9898,75.30557577950613L102.04535,65.27596936907088L102.37865,72.0712661743164L103.04525,75.27831867762974L103.65629999999999,75.41042600359236L103.8785,81.1817741394043L104.26735000000001,49.16792733328684L104.37845,51.41404560634068L104.65620000000001,78.28879874093191L104.71175,72.3663226536342L104.8784,69.88380432128906L104.93395000000001,73.20022691999162L105.04504999999999,70.31464276994978L105.1006,69.57289232526506L105.26725,80.9646224975586L106.2116,71.41600472586497L106.26715,62.72896194458008L106.3227,56.3188373020717L106.60045,67.23623275756836L106.7671,77.29328809465682L106.9893,57.26810019356863L107.04485000000001,62.738319396972656L107.1004,83.39727238246373L107.32260000000001,56.50635201590403L107.37815,58.03472191946848L107.5448,69.27974809919084L107.76700000000001,61.47136470249721L107.8781,81.69070325578963L108.60025,81.39860207693918L108.6558,69.88050733293807L109.15575,72.3684926714216L109.2113,72.30451311383928L109.82234999999999,78.3650131225586L110.26675,73.90423583984375L110.3223,72.41332571847097L110.48895,64.22478158133372L110.60005,52.95113154820034L110.65559999999999,74.37180873325893L111.10000000000001,66.7943344116211L111.15555,67.86984198434011L111.21109999999999,74.69837842668807L111.4333,68.33082689557756L111.54440000000001,80.11717660086497L111.6555,67.58558763776506L112.0999,78.95562962123326L112.37765,67.79768589564732L112.4332,65.25127792358398L112.59984999999999,74.60709381103516L112.9887,63.82037299019949L113.6553,68.24611227852957L113.93305000000001,80.86102512904576L113.98859999999999,85.71673366001674L114.0997,77.38782174246653L114.15525,65.74797821044922L114.48855,68.32431684221541L114.87740000000001,72.82317733764648L114.93295,63.8807258605957L115.4329,68.14295850481307L115.6551,58.910767691475996L115.7662,65.45890426635742L115.98840000000001,77.12164088657924L116.48835,66.40104566301619L116.8772,81.56260626656668L116.93275,73.99763652256557L117.2105,75.30809947422573L117.6549,68.98174830845424L117.76599999999999,79.5312717982701L118.15485,66.87094443184988L118.21039999999999,79.31802259172713L118.4326,69.57481057303293L118.71035,65.11629922049387L118.877,69.62565612792969L118.9881,76.05984279087612L119.15474999999999,71.23492813110352L119.3214,62.73129381452287L119.5436,79.08582469395229L119.988,78.78899383544922L120.4324,80.05231584821428L120.5435,81.75515638078963L120.6546,82.5377415248326L120.82125,66.9853379385812L120.87679999999999,71.87965720040457L121.2101,64.77025931222097L121.26565,72.01627840314592L121.71005,72.35121045793807L121.8767,78.38894326346262L121.93225,74.15534646170481L121.9878,71.81874084472656L122.04335,66.84955596923828L122.15445000000001,66.423704964774L122.3211,67.35173525129045L122.70995,72.30555616106307L122.7655,70.97913578578404L123.15435000000001,63.64877973284041L123.2099,62.598191397530684L123.26544999999999,66.15227290562221L123.7654,72.28930500575474L123.9876,73.05619049072266L124.0987,76.74085671561106L124.15425,76.45910208565847L124.26535000000001,64.68230765206472L124.54310000000001,72.32975605555943L124.59865,80.72514125279018L124.70975,69.16936492919922L124.7653,69.76350620814732L124.82085000000001,77.92204175676619L125.0986,66.18079485212053L125.8763,68.89168657575334L126.37625,64.2804287501744L126.70955,72.46333803449357L127.0984,66.83973693847656L127.15395,67.98034504481724L127.65390000000001,71.64738137381418L128.04275,63.2032367161342L128.48715,70.88028608049666L128.5427,74.1854269845145L128.70935,73.82544381277903L129.0982,48.12384905133928L129.2093,50.52364894321987L129.4315,74.48143659319197L129.987,83.53716060093471L130.04255,79.98494338989258L130.2092,83.39495849609375L130.48695,71.91990443638393L130.70915,63.60020010811941L131.4313,67.07559149605886L131.54240000000001,69.8542812892369L131.59795,60.91759654453823L131.93125,77.74004799979075L131.98680000000002,88.4438465663365L132.04235,79.22805677141463L132.15345,81.07419041224888L132.26455,75.65710067749023L132.93115,61.07581002371653L133.4311,77.55720901489258L133.6533,73.24167905535018L133.93105,79.51636341639927L133.9866,78.38802610124861L134.26435,65.22884041922434L134.59765,73.43551799229213L134.6532,69.79430607386998L134.9865,66.01280430385044L135.2087,72.140383039202L135.31980000000001,83.15297753470286L135.43089999999998,68.54838017054966L135.76420000000002,70.50108446393693L135.93085,73.2071865626744L136.04195,73.29891477312361L136.2086,58.00867571149553L136.37525,68.32027653285435L136.5419,71.6175286429269L136.653,81.86561148507253L137.04185,81.61020878383091L137.15295,77.40190887451172L137.81955,79.20855058942522L137.8751,69.5973379952567L137.93064999999999,77.99883161272322L138.70835,64.69244439261301L138.93054999999998,74.19452667236328L139.15275,73.11300659179688L139.20829999999998,73.84200068882534L139.37495,65.21743883405412L139.4305,58.67026737758091L139.59715,65.26871599469865L139.70825,70.3565444946289L139.81935,80.39131818498885L140.26375,73.22455869402205L140.37484999999998,83.82890210832869L140.5415,75.38415799822127L140.70815000000002,53.696274893624434L140.8748,71.02427455357143L140.98590000000002,76.44996643066406L141.15255,72.47646004813059L141.3192,80.51691545758928L141.37475,76.39394160679409L142.208,61.08464595249721L142.59685,75.08248955862864L142.8746,83.31123897007534L142.93015,80.80924442836216L142.9857,73.07182421003068L143.0968,75.61561856951033L143.15234999999998,70.90145874023438L143.26345,59.47966003417969L143.37455,61.3568333217076L143.5412,76.58083888462612L143.59675000000001,84.58126885550364L143.81895,76.59466225760325L144.0967,79.2902499607631L144.2078,75.31873975481307L144.59664999999998,63.347213200160425L144.70775,37.795307704380576L144.7633,58.83255113874162L144.92995000000002,79.26793234688894L145.04105,72.63839612688338L145.26325,63.16944558279856L145.42989999999998,71.01393999372209L145.541,73.42916979108537L145.6521,66.24724415370396L145.70765,87.69359588623047L146.26315,85.51018633161272L146.3187,87.16589791434153L146.5409,74.67000034877232L146.70755,48.83218601771763L146.8742,54.30849565778459L146.92975,63.205628531319746L146.9853,71.05455889020647L147.0964,73.64105224609375L147.15195,71.59442574637278L147.26305,69.05552291870117L147.5408,73.17681230817522L147.59635,73.21757507324219L147.98520000000002,68.8401096888951L148.04075,64.64691598074778L148.26295000000002,71.94606454031809L148.37405,80.86425617762974L148.48514999999998,78.95083400181362L148.70735,83.51053292410715L149.26285,56.807444981166284L149.37394999999998,84.03247015816824L149.48505,66.731691632952L149.54059999999998,74.73559842790877L149.7628,59.744366237095434L149.8739,74.65178898402623L149.92944999999997,78.5469888959612L150.37385,69.91119929722377L150.59605,85.9099371773856L150.7627,70.9649887084961L151.37375,70.21818487984793L151.59595,83.16156169346401L151.70705,72.5202260698591L151.87369999999999,74.56413705008372L151.9848,72.0430019923619L152.04035,68.10015760149275L152.15144999999998,70.28878239222935L152.20700000000002,58.18813977922713L152.26255,50.087379455566406L152.3181,72.55051640101841L152.42919999999998,80.32236916678293L152.5403,70.30893598284041L152.59585,75.00219890049526L152.81805,79.85938807896206L152.8736,86.85655048915318L152.98469999999998,70.34131840297154L153.15135,80.70282963344029L153.4291,81.24885886056082L154.0957,69.90723092215403L154.3179,73.43516431535994L154.48455,64.3510262625558L154.8734,73.96291024344309L155.04005,83.44367000034877L155.37335000000002,73.72441210065568L155.4289,83.34018053327287L155.54000000000002,80.27467673165457L155.70665,72.6340081351144L155.8733,73.48675319126674L155.92885,59.185316903250566L155.9844,68.391599382673L156.5399,74.00465611049107L156.59545,71.6771981375558L156.65099999999998,70.00260979788645L156.7621,78.29729897635325L157.03985,84.73172542027065L157.4287,72.57628686087473L157.48424999999997,66.43709673200334L157.5398,61.90080642700195L157.59535,72.08354296003068L158.03975,80.66099984305247L158.53969999999998,70.19386509486607L158.81744999999998,73.46872166224888L159.26185,73.45616912841797L159.3174,63.446878160749165L159.48405000000002,73.34564208984375L160.0951,72.18114580426897L160.26174999999998,70.17242867606028L160.4284,79.77993665422713L160.48395,70.77854701450893L160.53949999999998,67.68797411237443L160.6506,74.66612189156668L161.095,85.95941598074778L161.20610000000002,84.45907047816685L161.31719999999999,76.92102214268276L161.4283,73.99389593941824L161.9838,91.45627485002791L162.4282,63.98022297450474L162.48375,52.33979797363281L162.76149999999998,85.13750675746373L163.09480000000002,83.85802350725447L163.5392,69.84774725777761L163.8725,77.4489778791155L163.92804999999998,69.29402705601284L163.98360000000002,67.74265616280691L164.03915,79.06687600272043L164.15025,74.8892740522112L164.428,76.9387239728655L165.48345,67.67781938825334L165.59455,77.3357892717634L165.81674999999998,73.3480099269322L165.8723,76.26724134172713L166.4278,75.75506319318498L166.5389,59.747699192592066L166.70555,74.8410540989467L166.7611,68.78543962751115L166.81665,81.64874158586775L167.37215,63.435872214181074L167.4277,62.74318095615932L167.53879999999998,75.44775990077427L167.59435000000002,80.1709235055106L167.70545,77.28077752249582L167.92765,79.66185651506697L168.03875,81.1873550415039L168.2054,67.41977909633091L168.3165,74.0639419555664L168.4276,71.31336648123606L168.5387,73.12432425362722L169.03865000000002,82.24000549316406L169.26085,60.97361537388393L169.48305,70.96340615408762L169.59415,82.65762002127512L169.7608,79.56466729300364L169.92745,86.12385177612305L170.26075,68.78883252825057L170.31629999999998,78.78250776018416L170.5385,69.30219759259904L170.70515,72.55582754952566L170.87179999999998,71.77802004132951L170.9829,82.81474249703543L171.26065,70.98584965297154L171.48284999999998,82.73940331595286L171.6495,82.5256565638951L171.70505,71.15218571254185L171.76059999999998,71.82975878034318L171.81615000000002,82.49633135114397L171.9828,75.8415162222726L172.205,79.36430031912668L172.5383,61.953252519880024L172.59384999999997,68.24407414027623L172.7605,79.71685028076172L173.2049,71.95551790509904L173.48265,83.48190907069615L173.64929999999998,68.03527287074498L173.81595000000002,65.25786590576172L173.8715,82.35819952828543L173.9826,69.68118340628489L174.14925,76.45351518903459L174.2048,86.48034014020647L174.3159,76.57792554582869L174.6492,75.67919049944197L174.81584999999998,81.45081438337053L174.9825,63.707130432128906L175.03805,73.32342038835799L175.26025,66.35054179600307L175.59355,84.20685686383928L176.31570000000002,81.66103036063059L176.5379,68.48115757533482L176.649,73.93841661725725L176.92675,69.98701204572404L177.2045,75.03518676757812L177.4267,73.82279423304966L177.70445,75.0821418762207L177.92665,78.05700847080776L178.14884999999998,85.30276380266463L178.31550000000001,75.79621560232981L179.14875,71.17518670218332L179.70425,78.08204759870256L179.7598,61.78125762939453L179.81535,69.53425761631557L179.982,74.6410767691476L180.3153,73.8640365600586L180.6486,80.2534441266741L180.70415,83.17745917184011L180.7597,74.51754760742188L180.81525000000002,79.58917890276228L180.8708,81.1096420288086L180.92634999999999,71.96609224591936L180.9819,66.89986201695034L181.4263,65.87919235229492L182.70395000000002,81.86436462402344L182.7595,68.00402341570174L182.81505,76.64403315952846L183.20389999999998,86.28305435180664L183.81495,84.45983178274973L183.92605,85.59849766322544L184.14825000000002,76.43637684413365L184.59265,72.75355093819753L184.64819999999997,82.63674708775112L184.81485,66.73100226266043L184.92594999999997,71.05249677385603L184.9815,72.14320046561106L185.0926,69.54411860874721L186.14805,81.93275015694753L186.4258,73.36020878383091L186.59244999999999,77.21191242762974L186.7591,73.40432848249162L187.25905,76.9327174595424L187.3146,73.3770533970424L187.6479,72.81416756766184L187.75900000000001,72.56576647077287L187.81455,69.54785919189453L188.14785,84.36562783377512L188.3145,84.74376242501394L188.37005000000002,74.7763671875L188.64780000000002,70.69092505318777L188.75889999999998,74.52784620012557L188.87,79.6501132420131L189.03665,76.83591788155691L189.0922,87.71822139195034L189.5366,75.08964102608816L189.81435,78.0566188267299L189.92544999999998,86.99616895403182L189.98100000000002,81.6008333478655L190.03655,80.23613793509348L190.6476,87.90184565952846L191.2031,68.090818132673L191.64749999999998,80.81692940848215L192.59185,63.03964614868164L192.8696,68.38272748674666L192.98069999999998,76.30417960030691L193.03625,81.24445288521902L193.2029,88.7229995727539L193.7584,75.5215584891183L194.0917,61.341145651681074L194.3139,73.35202026367188L194.59165,78.8171501159668L194.70274999999998,67.01752253941127L194.81385,64.09368133544922L194.92495,65.49041148594448L195.03605000000002,82.97674451555525L195.25824999999998,85.27725110735213L195.31380000000001,70.27458735874721L195.48045,74.11637006487166L195.536,88.68253653390067L195.59155,77.80321829659597L195.81375,54.156888144356856L195.92485000000002,64.71576908656529L196.0915,78.39640045166016L196.14705,78.88587733677456L196.25815,84.7476588657924L196.5359,69.04710061209543L196.647,90.09844316755022L196.70255,81.07718767438615L196.7581,84.05278560093471L197.0914,88.13168770926339L197.2025,88.53196607317244L197.36915,78.956540788923L197.8691,83.89354705810547L198.03574999999998,78.93491254534041L198.14685,75.25600705827986L198.25795,72.01405443464006L198.36905,83.50087574550084L198.48015,78.68550436837332L198.98010000000002,85.66091264997209L199.20229999999998,61.36313956124441L199.3134,75.00681468418666L199.48004999999998,87.91395459856307L199.92445,83.4159153529576L200.14665,80.09294073922293L200.36885,72.50263214111328L200.70215000000002,82.27120099748885L201.09099999999998,63.55438995361328L201.2021,81.20114244733537L201.47985,81.97863224574498L201.8687,71.729122706822L202.03535000000002,73.64868927001953L202.0909,75.74161148071289L202.36865,84.27258682250977L202.4242,76.76430130004883L202.47975,76.4840213230678L202.59085000000002,59.23801476614817L202.7575,73.72585078648159L203.03525,80.86158861432756L203.2019,61.66863250732422L203.25745,66.61458860124861L203.36855,78.44412885393416L203.70185,83.57563345772878L204.25735,57.313298906598774L204.6462,81.58419254847935L204.81285000000003,73.32391793387278L204.8684,84.1537094116211L205.25725,73.16922923496791L205.31279999999998,78.39422443934849L205.36835,77.3682975769043L205.4239,74.58548355102539L205.70165,83.79173006330217L205.8683,73.06090218680247L207.2015,76.35805238996232L207.36815,75.17862374441965L207.47925,73.17692620413645L207.757,64.21453693934849L207.92365,58.67671748570034L207.97920000000002,65.64230673653738L208.09029999999998,77.16180419921875L208.14585,69.70340510777065L208.53470000000002,86.74284035818918L208.64579999999998,89.00613294328963L208.7569,86.22999681745256L209.25685,65.25946044921875L209.53459999999998,78.34156853812082L209.59015000000002,77.54144941057478L209.92345,70.14274379185268L210.03455,78.00094767979213L210.14565000000002,78.08324650355748L210.25675,83.12590026855469L210.47895,80.06864493233816L210.6456,75.7209723336356L210.8678,68.0525131225586L211.36775,79.918578011649L211.42329999999998,94.60732051304409L211.47885,73.11491285051619L211.81214999999997,90.86543655395508L212.25655,81.15375573294504L212.47875,66.30811854771206L212.58984999999998,73.45371736798967L212.6454,75.27737154279436L212.70095,82.40786416190012L212.92315,72.24578475952148L213.2009,84.64136396135603L213.58975,71.77094050816127L213.81195000000002,80.66682652064732L214.03414999999998,72.59488786969865L214.08970000000002,86.97965403965541L214.25635,82.84249714442662L214.47855,73.40269197736467L214.58964999999998,72.19332667759487L214.92295000000001,76.22418866838728L215.0896,75.9460667201451L215.2007,78.05036054338728L215.3118,77.57697296142578L215.4229,64.98636191231863L215.58955,75.39365931919643L215.70065,82.80112893240793L215.8673,59.79796927315847L216.08950000000002,79.15395845685686L216.2006,77.4082990373884L216.5339,67.0131585257394L216.81165,75.55372510637557L216.86720000000003,71.574583871024L217.08939999999998,67.37727791922434L217.47825,81.87197766985213L217.92264999999998,89.13783264160156L218.0893,84.18189566476003L218.25595,64.04363904680525L218.3115,78.68620572771346L218.47815,65.38327734810964L218.7559,78.06210381644114L219.08919999999998,77.34002740042551L219.14475000000002,78.900144304548L219.36694999999997,84.76066098894393L219.47805,77.95758928571428L219.81135,87.15813500540598L219.8669,88.01047842843192L219.978,74.03362165178572L220.2002,81.91842324393137L220.58905000000001,78.3475570678711L220.92235,85.89192363194057L221.089,69.93241991315568L221.4223,73.04058074951172L221.86669999999998,82.78882816859654L222.03335,88.00576673235213L222.14444999999998,71.49281855991909L222.20000000000002,81.94574628557478L222.47775000000001,83.1673583984375L222.5333,65.32173756190709L222.69995,82.99171883719309L222.81105,89.59083884102958L222.8666,77.61093194144114L222.9777,72.77169636317662L223.25545,82.44838115147182L223.81095,75.36868013654436L224.14425000000003,70.90478570120676L224.25535,74.57776859828404L224.3109,79.9803695678711L224.5331,79.53531210763113L224.58865,83.05390603201731L224.81085000000002,68.15402439662388L224.92194999999998,73.38615308489119L225.25525000000002,80.00922720772878L225.3108,79.85926818847656L225.47745,79.617185320173L225.69965,65.91601072038924L226.36624999999998,75.11436244419643L226.64399999999998,77.55396597726003L226.69955000000002,80.0681893484933L226.81065,74.43853378295898L227.03285,74.29696110316685L227.3106,88.22640119280135L227.36615,77.49038205827986L227.69944999999998,86.07127979823521L227.755,70.82952444893972L227.86610000000002,69.19041769845144L228.5327,76.2374485560826L228.7549,77.6914324079241L228.86599999999999,79.3887939453125L228.9771,87.7472768511091L229.14374999999998,81.2165663582938L229.3104,85.29389790126255L229.81035,84.96627916608537L230.14365,73.00257546561106L230.25475,87.48550197056362L230.8658,53.65636335100447L230.92135000000002,77.02999060494558L231.25465,59.851530347551616L231.6435,86.89442988804409L232.9767,73.42717960902623L233.03225,82.42670495169504L233.14335,81.90775299072266L233.31,97.27075358799526L233.42110000000002,75.02377918788365L234.58765,82.20397240774973L234.7543,72.02015686035156L234.9765,78.21318381173269L235.03205,76.86445181710378L235.0876,81.99024963378906L235.1987,74.92702157156809L235.42090000000002,84.66150556291853L235.58755,82.045531136649L235.69865000000001,81.88948168073381L235.80974999999998,88.56545748029436L236.1986,84.51715741838728L236.36525,88.43241500854492L236.42079999999999,84.71443721226284L236.58745,71.4455577305385L236.8652,76.45152500697544L237.30960000000002,88.91034044538225L237.53179999999998,58.23857770647322L237.6429,71.57299532209123L237.754,78.89304678780691L237.80955,71.1602303641183L238.14285,78.8967514038086L238.36505,74.21429661342076L238.47615000000002,91.02846963065011L238.58724999999998,89.4754742213658L238.75390000000002,90.44955444335938L239.25385000000003,76.11941037859236L239.36495,82.4255120413644L239.4205,86.72383771623885L239.6427,76.3182487487793L239.92045000000002,73.61881256103516L240.03154999999998,76.03215408325195L240.58705,73.70130920410156L240.69815,71.22428785051619L240.80925,63.641927991594585L241.53140000000002,92.33315985543388L241.75359999999998,84.85514068603516L241.8647,72.8656964983259L242.4202,64.41928591047014L242.69795000000002,71.38091278076172L243.08679999999998,83.69496645246232L243.25345000000002,76.32004111153738L243.36454999999998,79.04228646414622L243.69785,89.3801133292062L244.0867,78.98978642054966L244.47555,66.72792107718332L244.53109999999998,75.79484285627092L244.58665000000002,72.69343784877232L244.69775,79.37768009730748L244.86440000000002,60.028944287981304L244.91995,56.013710021972656" style="fill: none;" fill="none"></path></g><g><path stroke="rgb(255, 112, 67)" stroke-width="2px" d="M36.551899999999996,-5.879429408482139L37.051849999999995,9.392208644321983L37.1074,-7.232165745326455L37.60735,-2.2555596487862886L37.6629,4.985250200544101L37.94065,2.87885829380582L38.051750000000006,14.254966735839844L38.107299999999995,-0.19182477678569398L38.3295,10.216156005859375L38.7739,12.19636317661832L39.2183,16.732107979910722L39.273849999999996,10.246284484863281L39.3294,10.875481741768965L39.5516,7.833992004394531L40.16265,-89.72692653111051L42.940149999999996,-6.360801696777344L43.9956,9.297207423618858L44.27334999999999,9.202541896275108L44.3289,9.058469499860507L44.606649999999995,3.428436279296875L44.828849999999996,11.320527212960371L44.8844,10.509468078613281L44.9955,9.45046343122209L45.4399,9.986397879464278L45.49545,3.3433859688894927L45.82875,11.963320050920743L45.8843,20.070914132254472L45.93985,12.512430463518399L46.106500000000004,4.573953901018399L46.60645,13.884421212332597L47.05085,24.433609008789062L47.93965,1.7974820818219825L48.16185,23.504062107631142L48.49515,9.774479457310264L48.71735,26.448344639369424L48.828450000000004,14.012020656040733L49.49505,18.267953055245528L49.5506,24.073649815150674L50.439400000000006,38.108941214425215L51.16155,28.49795641217912L51.2171,15.971558707100996L51.328199999999995,32.179253714425215L51.6615,23.980722699846524L52.161449999999995,30.892337254115517L52.27255,31.44919259207589L52.328100000000006,30.067874363490517L52.49475,24.80062975202287L52.828050000000005,14.36897059849332L53.328,42.97456468854631L53.49465,33.900317600795205L53.5502,33.47793143136161L54.05015,34.76760537283761L54.1057,33.732123238699785L54.93895,24.237396240234375L55.05005,32.940234592982705L55.16115,32.16581399100167L55.93885,27.260482788085938L56.2166,44.57112230573381L56.3277,33.39264133998324L56.49435,42.96096910749162L56.93875,33.492018563406816L57.27205,36.88310895647322L57.38315,39.65159606933594L57.5498,33.387306213378906L57.8831,34.590623038155684L58.16085,40.192949567522305L58.71635,29.885425022670205L58.82745,37.61170741489957L59.04965,38.8352257864816L59.382949999999994,46.51228114536832L59.60515,49.98225947788784L59.6607,37.34866768973214L59.938449999999996,41.6419459751674L60.04955,29.76301683698381L60.1051,39.658753531319746L60.2162,39.75598471505302L60.3273,37.59166172572543L60.382850000000005,39.512882777622764L60.6606,39.056639535086504L60.71615,39.71752384730746L61.216100000000004,43.459269932338174L61.5494,46.14468492780412L61.6605,31.461397443498868L61.938250000000004,39.36439841134208L62.216,40.42854636056083L62.327099999999994,41.692383902413496L62.9937,34.163848876953125L63.382549999999995,44.474430629185264L63.4381,51.688882555280415L63.5492,41.0195105416434L63.60475,39.9596666608538L63.6603,31.541748046875L63.715849999999996,30.160741533551914L63.826950000000004,42.88962227957589L63.9936,37.62782069614957L64.2158,47.63486371721541L64.49355,-43.51443154471261L64.6602,36.43802751813615L64.8824,30.96493094308036L65.04905,39.3766871861049L65.2157,39.15646035330636L65.27125,40.102336338588174L65.4379,35.99728611537387L65.49345,40.409411839076455L65.6601,44.2981676374163L65.71565,41.713820321219316L65.99340000000001,42.075146266392295L66.04895,40.47934395926339L66.4378,41.544103349958164L66.60445,40.29588753836495L66.82665,36.5206080845424L66.9933,36.48586382184709L67.21549999999999,43.925116402762285L67.43769999999999,42.245103018624434L67.65990000000001,54.46153586251394L67.82655,38.20014190673828L67.88210000000001,47.791009085518965L67.93765,42.18832288469588L68.3265,46.682849339076455L68.6598,44.448426382882246L68.7709,43.56640407017301L68.82645,38.78096335274833L69.04865,37.90420423235213L69.27085000000001,45.125603812081465L69.4375,42.40332249232699L69.49305,45.08817400251115L69.54860000000001,37.4486803327288L69.6597,43.72535487583707L69.7708,35.69314793178012L70.27075,55.30799266270229L70.32629999999999,43.28275517054965L70.49295000000001,55.39119665963308L70.5485,48.883595057896216L70.60405,48.1540494646345L70.71515,40.84600503104073L70.7707,50.11077008928572L71.104,58.895967211042134L71.32619999999999,44.37682778494698L71.38175,46.642638070242754L71.49285,42.016663687569746L71.60395,42.326340811593184L71.7706,56.12930243355886L71.82615,50.8197125026158L71.8817,37.65238625662667L71.93725,50.06106349400112L72.1039,40.839794703892295L72.32610000000001,45.19312613351005L72.60385000000001,37.32345472063338L72.6594,51.36336190359934L72.71494999999999,47.698657444545205L73.04825000000001,45.088233947753906L73.38155,50.51325443812779L73.60375,47.965078081403476L73.7704,57.82183238438198L73.99260000000001,8.793247767857139L74.2148,14.368251255580361L74.3259,17.26873779296875L74.60365,24.551425388881142L75.93684999999999,36.43392726353238L76.04795,43.91970934186662L76.10350000000001,39.80144718715121L76.3257,45.227978297642295L76.4368,25.54348318917411L76.659,39.505473545619424L76.7701,19.688571384974892L77.2145,30.10085623604911L77.5478,43.42892565046037L77.77000000000001,44.31525203159879L78.15885,37.843491690499434L78.2144,44.59077235630582L78.26995,31.506943838936934L78.32549999999999,34.721747262137285L78.60324999999999,29.986252920968184L78.71435,25.17329733712333L78.88099999999999,41.899266924176914L78.93655,36.701762608119424L79.04765,42.74122183663505L79.49205,44.46733311244418L79.5476,35.89786093575614L79.71424999999999,38.515525817871094L80.1031,38.74649483816964L80.26974999999999,45.73449162074496L80.7697,43.167888096400674L80.88080000000001,50.518409729003906L80.93635,38.469751630510586L80.9919,45.06465148925781L81.15855,36.00398799351285L81.2141,53.30806350708008L81.4363,63.0572760445731L81.71405,37.45490264892578L81.7696,40.87474278041293L81.99180000000001,54.905262538364966L82.04735,49.283082144600996L82.10289999999999,39.57827104840959L82.15845,52.29877144949778L82.38064999999999,46.56286294119698L82.4362,41.604156494140625L82.60285,43.11451285226005L82.6584,45.89115251813615L83.1028,55.44035175868443L83.325,47.12815856933594L83.4361,46.37001909528459L83.5472,48.76737322126115L83.60275,41.459340776715976L83.9916,47.69894518171037L84.04714999999999,48.97722952706472L84.1027,51.22062029157365L84.26935,49.50563485281809L84.71375,49.07072012765066L84.82485,35.60435703822543L85.04705000000001,43.109309605189736L85.1026,51.610282352992456L85.38035,55.2483171735491L85.76920000000001,52.514586312430254L86.38025,54.93391036987305L86.49135,39.480464390345986L86.82464999999999,40.39507293701172L86.8802,46.53351375034879L86.9913,56.04940741402761L87.1024,52.02331107003347L87.3246,54.994556971958716L87.54679999999999,58.2898908342634L87.6579,48.295208522251684L87.93565,54.56763894217356L87.9912,50.27897644042969L88.04675,54.16413552420481L88.49115,50.865708487374434L88.82445,49.20240783691406L89.04665,54.34025464739119L89.1022,45.474029541015625L89.15775000000001,55.10518591744558L89.65769999999999,56.90387889317104L89.7688,48.22840554373606L89.93544999999999,48.86770956856863L90.26875,61.82942363194057L90.71315,45.0764367239816L90.82425,57.39305005754744L91.93525000000001,63.92737524850027L91.9908,54.29302978515625L92.21300000000001,55.47821317400252L92.26855,45.74734388078963L92.32409999999999,65.52887834821428L93.32400000000001,45.77241298130582L93.60175000000001,66.05534744262695L93.9906,58.467550550188335L94.04615,48.42525373186385L94.37944999999999,57.356417519705644L94.49055,58.79152461460659L94.7683,36.994139535086504L94.8794,62.85591397966658L94.99050000000001,43.679017203194746L95.2127,47.81591033935547L95.7682,59.81636047363281L96.2126,45.814194815499434L96.26815,51.25207356044224L96.3237,56.412052154541016L96.4348,55.464515686035156L96.8792,48.964281354631694L97.04585,51.4426634652274L97.37915000000001,65.05456161499023L97.49024999999999,57.11191885811941L97.60135,49.63814980643137L97.65690000000001,57.14959444318498L97.82355,46.686997549874434L97.93465,44.35919189453125L98.10130000000001,61.806656428745825L98.5457,55.446136474609375L98.93455,55.455997467041016L99.26785,56.90566526140486L99.49005000000001,58.22444261823381L99.5456,62.423451014927466L99.60114999999999,54.882657187325606L99.6567,59.091964176722925L99.99,58.69413757324219L100.54549999999999,55.44050761631557L100.6566,29.657824925013955L100.82325,63.310946328299394L100.87880000000001,51.932254246303L101.04545,53.45377840314592L101.37875,61.40011378696987L101.48985,64.84548459734236L101.6565,60.19061061314174L101.82315,69.35434995378768L101.9898,58.6788215637207L102.04535,66.39878572736467L103.04525,56.84276471819197L103.65629999999999,64.26457922799246L103.8785,60.11501966203963L104.65620000000001,51.89201899937221L104.71175,69.00402396065847L104.8784,54.6590794154576L104.93395000000001,62.9570416041783L105.04504999999999,66.36527633666992L105.1006,67.62384469168528L106.2116,59.25033950805664L106.26715,60.4303196498326L106.3227,41.242482866559726L106.60045,62.778176988874165L106.7671,57.26998247419084L106.9893,66.37385450090682L107.1004,52.59104047502791L107.32260000000001,60.36332484654018L107.37815,58.67112459455217L107.5448,55.345824105399004L107.76700000000001,58.32491084507534L107.8781,54.66633878435408L108.6558,57.27889033726284L109.15575,53.59873798915318L109.2113,71.15258135114397L109.82234999999999,58.41762215750559L110.26675,68.48523385184153L110.3223,52.44714191981724L110.48895,45.496532985142295L110.60005,51.29070826939174L110.65559999999999,65.61212430681502L111.10000000000001,65.34110586983816L111.15555,69.4809902736119L111.21109999999999,59.69597244262695L111.4333,58.63037981305803L111.54440000000001,54.264244079589844L111.6555,63.373211451939184L112.0999,61.79008756365096L112.37765,60.00931222098215L112.4332,51.004463740757544L112.59984999999999,49.568121773856035L112.9887,72.20076588221959L113.6553,53.94107927594865L113.93305000000001,61.10411616734096L113.98859999999999,54.23871340070451L114.0997,60.019185202462324L114.15525,64.32781546456472L114.48855,65.2778696332659L114.87740000000001,65.17112513950893L114.93295,62.71964645385742L115.4329,55.67988695417131L115.6551,63.83760724748885L115.7662,63.076260702950606L115.98840000000001,55.61879675728933L116.48835,64.51395143781389L116.8772,54.11246272495815L116.93275,74.39039175851003L117.2105,57.91859599522182L117.6549,66.07393046787807L117.76599999999999,66.37282943725586L118.15485,61.792940957205644L118.21039999999999,59.5175813947405L118.4326,66.14019993373326L118.71035,58.586409977504175L118.877,61.1537867954799L118.9881,68.45944540841238L119.15474999999999,60.282146998814184L119.3214,69.25756236485073L119.5436,79.45989499773299L119.988,55.743782588413794L120.4324,59.25841413225447L120.5435,66.97575269426619L120.6546,68.10539681570872L120.82125,75.23819133213588L120.87679999999999,55.40832301548549L121.2101,60.0602057320731L121.26565,72.25701849801199L121.71005,61.39614541190012L121.8767,69.02078465053013L121.93225,66.58091735839844L121.9878,63.19290215628489L122.04335,63.188813890729634L122.15445000000001,66.94567816598074L122.3211,70.01749420166016L122.70995,57.57474408830916L122.7655,52.47109004429409L123.15435000000001,59.154415130615234L123.2099,76.03812462942942L123.26544999999999,54.72313690185547L123.7654,63.50870568411692L123.9876,64.37257058279856L124.0987,62.825593675885884L124.15425,69.14167622157505L124.26535000000001,62.6162109375L124.54310000000001,70.97061157226562L124.59865,58.30081285749162L124.70975,65.2624637058803L124.7653,67.37489809308732L124.82085000000001,80.11897495814732L125.0986,54.37386594499861L125.8763,56.50883374895369L126.37625,73.85757446289062L126.70955,62.02805818830217L127.0984,71.91257313319615L127.15395,72.82620457240513L127.65390000000001,81.16885593959263L128.04275,73.95453589303152L128.48715,66.0921777997698L128.5427,69.77261189052037L128.70935,63.20195388793945L129.0982,76.64756992885044L129.2093,66.463376726423L129.4315,74.276244027274L129.987,65.13940811157227L130.04255,71.73759896414622L130.2092,82.1200430733817L130.48695,64.59989493233816L130.70915,69.71513639177596L131.4313,63.70599147251674L131.54240000000001,82.93402753557478L131.59795,66.15336390904018L131.93125,66.31495230538503L131.98680000000002,66.6524919782366L132.04235,72.89910398210799L132.15345,74.99906975882395L132.26455,83.21612385341099L132.93115,58.66425486973354L133.6533,70.494142804827L133.93105,79.55117961338588L134.26435,71.1174534388951L134.59765,73.12433624267578L134.6532,87.41485050746373L134.9865,77.31387329101562L135.2087,65.5709479195731L135.31980000000001,77.20317840576172L135.43089999999998,59.32013375418528L135.76420000000002,73.27294049944197L135.93085,75.94296155657088L136.04195,62.16398402622768L136.2086,59.17467062813894L136.37525,78.32600675310408L136.5419,70.08086231776646L137.04185,73.71117619105748L137.15295,71.77367401123047L137.81955,75.34018216814314L137.8751,73.57105418613979L137.93064999999999,83.80174691336497L138.70835,69.51822226388113L138.93054999999998,75.97577558244978L139.15275,75.73518535069057L139.37495,76.41167940412248L139.4305,73.20559801374162L139.59715,81.21917397635325L139.70825,68.89593669346401L139.81935,75.36127689906529L140.26375,77.13271277291433L140.37484999999998,75.71250806535994L140.5415,83.11434882027761L140.70815000000002,80.29233060564314L140.8748,73.74402618408203L140.98590000000002,73.07302910940989L141.15255,75.6922345842634L141.3192,70.40518406459263L141.37475,87.57184110369002L142.208,77.98966598510742L142.59685,67.87949916294643L142.8746,73.55726678030832L142.93015,85.89767238071987L142.9857,73.56474195207869L143.0968,85.87875965663365L143.15234999999998,79.69741603306362L143.26345,78.09382683890207L143.37455,75.84531675066268L143.59675000000001,75.81735828944615L143.81895,79.19358825683594L144.0967,82.53834097726003L144.2078,66.22318812779018L144.59664999999998,79.98940931047713L144.70775,72.93972887311662L144.7633,74.06065695626394L144.92995000000002,82.37432479858398L145.04105,67.9874005998884L145.26325,66.46037346976145L145.42989999999998,75.2918722970145L145.541,81.26276016235352L145.6521,83.93119267054966L145.70765,74.37530953543528L146.26315,72.14641353062221L146.3187,72.04308591570174L146.5409,91.38226645333427L146.70755,69.79568481445312L146.8742,77.96436309814453L146.92975,74.41553279331752L147.0964,75.9191632952009L147.15195,83.34893253871373L147.26305,73.67627607073103L147.5408,78.41226196289062L147.59635,83.30948257446289L147.98520000000002,66.37394441877092L148.04075,67.52095467703684L148.26295000000002,73.75841304234096L148.37405,76.5916769845145L148.48514999999998,78.37261417933873L148.70735,83.2218905857631L149.26285,70.26145335606166L149.37394999999998,76.92236491612026L149.48505,76.4213785443987L149.54059999999998,75.41323743547713L149.7628,80.82095173427037L149.92944999999997,77.9020140511649L150.37385,81.6413803100586L150.59605,74.2540283203125L150.7627,77.68413707188198L151.37375,67.84907095772878L151.59595,66.1320653642927L151.70705,83.68485968453543L151.87369999999999,86.01512908935547L151.9848,84.59014674595424L152.04035,68.30972017560686L152.15144999999998,74.3340732029506L152.26255,75.99762562343052L152.3181,74.51163700648716L152.42919999999998,84.42623247419084L152.5403,69.65339878627232L152.59585,74.72777557373047L152.81805,70.67108317783901L152.8736,83.18246459960938L152.98469999999998,87.28705923897878L153.15135,80.52361733572825L153.4291,74.98580987112864L154.0957,72.7645628792899L154.3179,67.37220655168807L154.48455,77.21492167881557L155.04005,78.4235736301967L155.37335000000002,80.48925072806223L155.4289,66.32554462977818L155.54000000000002,73.03645651681082L155.70665,74.63784572056362L155.8733,73.20001711164201L155.92885,78.60973358154297L155.9844,80.33312933785574L156.5399,85.20824214390346L156.59545,66.6823866707938L156.65099999999998,75.3269522530692L156.7621,82.70562417166575L157.4287,79.05204554966518L157.48424999999997,81.57904924665178L157.5398,70.64648165021623L157.59535,77.65551321847097L158.03975,81.28180476597377L158.53969999999998,81.49091775076731L158.81744999999998,76.5471556527274L159.48405000000002,82.21390533447266L160.26174999999998,79.40134048461914L160.4284,76.28461347307478L160.48395,77.02110072544643L160.53949999999998,68.87752151489258L160.6506,82.17225537981307L161.095,91.17266191755022L161.20610000000002,73.55802808489119L161.31719999999999,79.7933464050293L161.4283,79.41203471592495L161.9838,87.32394354684011L162.4282,76.47835050310408L162.48375,88.37487956455776L162.76149999999998,73.54211861746653L163.09480000000002,72.10722732543945L163.5392,84.3853018624442L163.8725,80.64588165283203L163.92804999999998,81.5413796561105L164.03915,84.81293324061802L164.15025,93.38677542550224L164.428,70.63684245518276L165.48345,83.10048348563059L165.59455,78.29424176897322L165.81674999999998,88.8733242579869L165.8723,79.31316702706472L166.4278,70.47217287336076L166.5389,84.60286712646484L166.70555,79.8343369620187L166.7611,84.98392704554966L166.81665,82.05584771292551L167.37215,77.72505569458008L167.4277,78.33662305559432L167.59435000000002,84.4257708958217L167.70545,86.9068685259138L167.92765,78.0056893484933L168.03875,82.37968989780971L168.2054,83.1920498439244L168.3165,83.06154305594309L168.4276,77.74715151105607L168.5387,77.52653503417969L169.03865000000002,77.2993425641741L169.26085,77.88914380754744L169.48305,93.37840107509068L169.59415,91.27229690551758L169.7608,82.25025612967356L169.92745,76.168331691197L170.26075,75.69846289498464L170.31629999999998,76.7499623979841L170.5385,81.60954339163645L170.70515,87.51582826886857L170.87179999999998,91.39600590297154L170.9829,84.74224581037248L171.48284999999998,73.31701823643276L171.6495,87.92044067382812L171.70505,78.44460242135183L171.76059999999998,92.16142872401646L171.81615000000002,88.00236184256417L171.9828,80.92297853742326L172.205,84.50823756626674L172.5383,82.42880303519114L172.59384999999997,90.53591755458287L172.7605,87.69975825718471L173.2049,86.22194617135183L173.48265,68.38284737723215L173.64929999999998,87.55622536795481L173.81595000000002,65.40702765328543L173.8715,81.04690333775112L173.9826,79.69328580583846L174.14925,86.54358836582729L174.2048,93.1032703944615L174.3159,88.20586395263672L174.6492,81.86657660348074L174.81584999999998,89.61331830705916L174.9825,79.14528438023159L175.03805,83.9037197657994L175.26025,82.15189797537668L175.59355,80.19084330967495L176.31570000000002,91.01539557320731L176.5379,89.28596333095005L176.649,83.1035406930106L176.92675,70.43566022600447L177.2045,83.16680090767996L177.70445,92.68360573904855L177.92665,80.09679521833147L178.14884999999998,90.04966572352818L178.31550000000001,77.8630256652832L179.14875,83.2364273071289L179.70425,88.25225557599748L179.7598,83.14336231776646L179.81535,86.3363037109375L179.982,104.07452065604073L180.3153,73.06726237705776L180.6486,84.16470336914062L180.70415,80.19325310843332L180.7597,70.407833644322L180.81525000000002,73.63686806815012L180.8708,91.50453676496232L180.92634999999999,72.52740750994002L180.9819,92.10441480364119L181.4263,87.82314954485213L182.70395000000002,75.08019365583147L182.7595,77.04997634887695L182.81505,81.65157100132534L183.20389999999998,74.29853766305105L183.81495,85.07332338605607L183.92605,86.5039166041783L184.14825000000002,81.10394723074778L184.59265,73.15574754987443L184.64819999999997,85.72209875924246L184.81485,78.5189585004534L184.92594999999997,72.192019871303L184.9815,77.34861755371094L185.0926,82.57925360543386L186.14805,86.86806597028459L186.4258,80.57846723284041L186.59244999999999,77.33307974679128L186.7591,81.73101643153599L187.25905,80.59765570504324L187.3146,66.61610521589006L187.6479,88.00593457903182L187.75900000000001,85.90507561819895L187.81455,80.11935261317662L188.14785,71.09013639177596L188.3145,72.65595408848354L188.37005000000002,100.92206927708217L188.64780000000002,84.03620474679128L188.75889999999998,81.1163558959961L188.87,82.85338919503347L189.03665,77.5559561593192L189.0922,88.43580191476005L189.5366,88.08092607770647L189.81435,76.60544041224888L189.92544999999998,84.82662473406111L189.98100000000002,80.7707895551409L190.03655,104.53888048444475L190.6476,81.76869201660156L191.2031,83.6295062473842L191.64749999999998,78.01588003976003L192.59185,82.20399638584682L192.8696,86.56903512137278L192.98069999999998,80.52444458007812L193.03625,86.75096893310547L193.2029,85.82583400181362L193.7584,80.45287595476424L194.0917,81.54559380667551L194.3139,86.60647092546736L194.59165,78.52810014997209L194.70274999999998,90.05284881591797L194.81385,88.12489591326033L194.92495,85.47232491629465L195.03605000000002,90.92077800205776L195.25824999999998,86.0698471069336L195.31380000000001,76.66190883091518L195.48045,94.80490602765764L195.536,93.73509325299943L195.59155,82.80545098440989L195.81375,103.87114143371582L195.92485000000002,91.64670889718192L196.0915,85.68139593941824L196.14705,87.62259074619838L196.25815,83.15480586460659L196.5359,82.96386228288924L196.647,89.2414779663086L196.70255,93.7246927533831L196.7581,88.54905646187919L197.0914,78.0198723929269L197.2025,84.78194754464285L197.36915,84.70522962297713L197.8691,92.93776757376534L198.03574999999998,90.75126484462193L198.14685,87.88267517089844L198.25795,86.99908828735352L198.36905,89.10751233782088L198.48015,91.6747213091169L198.98010000000002,89.86334991455078L199.20229999999998,89.72101593017578L199.3134,85.72170911516463L199.48004999999998,83.46516636439732L199.92445,83.08796092442104L200.14665,94.7606304713658L200.36885,83.97515051705496L200.70215000000002,85.0230233328683L201.09099999999998,87.27977589198521L201.2021,84.55536651611328L201.47985,70.83496747698103L201.8687,94.40022768293107L202.03535000000002,85.47174944196428L202.0909,88.6116452898298L202.36865,87.17345101492747L202.4242,94.75988715035575L202.47975,84.40136119297573L202.59085000000002,85.28367124285018L202.7575,90.11164910452706L203.03525,94.92751802716936L203.2019,80.59440667288645L203.25745,88.10959788731166L203.36855,99.67221995762416L203.70185,82.49475479125977L204.25735,86.60074016026088L204.6462,83.65395791190012L204.81285000000003,91.21862193516323L204.8684,92.35065187726701L205.25725,92.53771700177873L205.31279999999998,85.08446720668248L205.36835,83.52770124162947L205.4239,81.7258311680385L205.70165,93.70184762137276L205.8683,75.45298712594168L207.2015,95.80105808803013L207.36815,87.58026341029576L207.47925,94.1160033089774L207.757,72.40244565691268L207.92365,89.01808602469308L207.97920000000002,83.40034157889231L208.09029999999998,94.06492396763393L208.14585,80.30895342145647L208.53470000000002,87.63131277901785L208.64579999999998,80.95042746407644L208.7569,90.51387568882534L209.25685,97.12410954066685L209.53459999999998,93.39758954729353L209.59015000000002,83.99418912615096L209.92345,100.48769705636161L210.03455,85.9201878138951L210.14565000000002,93.6912612915039L210.25675,85.9155240740095L210.47895,92.63232258387974L210.6456,96.34217180524553L210.8678,90.27591105869838L211.36775,89.05619321550643L211.42329999999998,97.38270132882255L211.47885,88.44455991472518L211.81214999999997,94.92544991629464L212.25655,89.77808380126953L212.47875,91.54994528634208L212.58984999999998,97.17454147338867L212.6454,91.02421351841518L212.70095,70.24427904401506L212.92315,71.4713281903948L213.2009,92.67300142560686L213.58975,100.95512008666992L214.03414999999998,87.43264825003489L214.25635,87.8911873953683L214.47855,83.22347913469588L214.58964999999998,98.0916257585798L214.92295000000001,91.37902341570174L215.0896,86.87514550345286L215.2007,86.66179438999721L215.3118,91.57328796386719L215.4229,91.8138302394322L215.58955,93.60791342599052L215.70065,71.72586168561662L215.8673,86.7618430001395L216.08950000000002,80.21958705357143L216.5339,94.55160140991211L216.81165,95.22368948800224L216.86720000000003,89.69107927594865L217.08939999999998,99.63513783046177L217.47825,91.16425159999302L218.0893,91.10806492396763L218.25595,91.73866489955357L218.3115,76.2405776977539L218.47815,92.72523771013533L218.7559,93.04579489571708L219.08919999999998,93.17037309919084L219.14475000000002,84.34972436087473L219.36694999999997,90.33692932128906L219.47805,96.04137856619698L219.81135,93.46469225202287L219.8669,92.41034534999302L219.978,102.81800542558943L220.2002,96.55022975376674L220.58905000000001,95.95313916887557L220.92235,80.56819861275808L221.089,88.7500228881836L221.4223,92.65517371041435L221.86669999999998,99.6018202645438L222.03335,100.6603513445173L222.14444999999998,100.3839498247419L222.20000000000002,101.7904270717076L222.47775000000001,88.53975895472935L222.5333,87.39494269234793L222.69995,89.9098734174456L222.81105,97.9356302533831L222.8666,98.6338724408831L222.9777,94.15240805489677L223.25545,85.69914572579519L223.81095,92.28340530395508L224.14425000000003,89.41821452549526L224.25535,85.82467705862864L224.3109,84.04128210885183L224.5331,85.07378496442522L224.58865,87.55277252197266L224.81085000000002,88.67986897059849L224.92194999999998,86.0441905430385L225.25525000000002,92.9958005632673L225.3108,92.89353997366769L225.47745,87.43701825823103L225.69965,90.27788925170898L226.36624999999998,97.99939400809151L226.64399999999998,88.93872451782227L226.69955000000002,94.72231347220284L226.81065,87.42034149169922L227.3106,103.78149032592773L227.36615,95.50032479422433L227.69944999999998,87.23835372924805L227.755,96.13509096418107L228.5327,87.21379416329519L228.7549,103.25066021510533L228.86599999999999,96.68519646780831L228.9771,103.77496528625488L229.14374999999998,96.25192424229213L229.3104,86.71502576555525L229.81035,93.26245498657227L230.14365,84.87952041625977L230.25475,83.63571058000838L230.8658,97.27682004656111L230.92135000000002,91.05952726091658L231.25465,88.76436179024833L231.6435,97.68089893886021L232.9767,84.08541379656111L233.03225,95.82258442470005L233.14335,92.29385375976562L233.31,84.36149760654995L233.42110000000002,98.2862319946289L234.58765,94.40742710658482L234.7543,84.8243408203125L234.9765,98.90120424543107L235.03205,86.64560317993164L235.0876,74.93548583984375L235.1987,82.44632502964565L235.42090000000002,95.03698403494698L235.58755,92.9550677708217L235.69865000000001,100.9529800415039L235.80974999999998,91.38456235613143L236.1986,95.30168424333846L236.42079999999999,84.88285337175643L236.58745,91.90921510968889L236.8652,88.49202455793107L237.30960000000002,98.20272827148438L237.53179999999998,89.5303840637207L237.6429,90.65888323102678L237.754,97.41153499058315L237.80955,99.13345009940011L238.14285,87.91633442470005L238.36505,102.48937361580985L238.47615000000002,85.35122353690012L238.58724999999998,91.5737315586635L238.75390000000002,98.48146166120256L239.25385000000003,100.15923309326172L239.36495,98.47588075910295L239.4205,94.68244988577706L239.6427,102.66047831944057L239.92045000000002,105.96161188398088L240.03154999999998,96.12974384852818L240.58705,98.04263251168388L240.69815,83.45319529942104L240.80925,97.2654664175851L241.53140000000002,95.21189825875419L241.75359999999998,88.59599958147322L241.8647,104.57141276768276L242.4202,97.76775959559849L242.69795000000002,87.62530626569475L243.08679999999998,96.57703127179826L243.25345000000002,97.7791132245745L243.36454999999998,88.18780844552177L243.69785,100.68120329720634L244.47555,93.7715699332101L244.53109999999998,104.60229355948312L244.58665000000002,94.86038534981864L244.69775,94.47630419049943L244.86440000000002,92.84116581508091L244.9755,89.05113983154297L245.3088,91.39822387695312L245.531,98.75167083740234L245.58655,106.88904871259416L245.91985,91.01116943359375L245.9754,94.59611075265067L246.03095000000002,89.07680238996232L246.30870000000002,90.71887043544224L246.36425,100.74610301426479L246.58645,102.32919692993164L247.1975,90.74224308558873L247.5308,85.68309838431223L247.75300000000001,86.80876813616072L247.86409999999998,90.11800929478237L248.03075,94.00313241141183L248.14185,101.61908558436802L248.47514999999999,95.21949332101005L248.6418,77.25649969918386L248.864,102.90171595982143L249.08620000000002,93.90062604631697L249.1973,100.23732376098633L249.36395000000002,96.1743550981794L249.47505,86.51867512294224L249.69725,88.41361018589565L249.80835,96.16803087506975L249.975,93.48020608084542L250.25275000000002,99.53825432913644L250.47495,100.41494151524135L250.53050000000002,100.58678654261998L250.64159999999998,81.87101255144393L251.14155,91.86895588466099L251.1971,88.13920484270369L251.80814999999998,87.6226327078683L251.91925,98.39364188058036L251.9748,104.03282873971122L252.36364999999998,91.31557737077986L252.47475,93.8474246433803L252.5303,84.36906869070872L252.58585,88.41404179164341L252.64139999999998,96.73020335606166L252.8636,95.6970111301967L252.9747,96.60292162214006L254.1968,91.692015511649L254.36344999999997,92.15232903616769L254.86339999999998,92.56516592843192L255.03005000000002,93.37984575544084L255.14114999999998,99.34014129638672L255.36335,100.4071546282087L255.41889999999998,106.56956154959542L255.47445,88.34702900477818L255.58555,97.61105673653739L256.02995,104.0835064479283" style="fill: none;" fill="none"></path></g></g></g></g></g></g><g transform="translate(52, 176)" clip-path="url(#clip_1)"><clipPath id="clip_1"><rect width="277" height="24"></rect></clipPath><g><g><line x1="0" y1="0" x2="0" y2="5" style="visibility: inherit;" fill="rgb(0, 0, 0)" stroke="rgb(204, 204, 204)" stroke-width="1px"></line><line x1="27.775000000000002" y1="0" x2="27.775000000000002" y2="5" style="visibility: inherit;" fill="rgb(0, 0, 0)" stroke="rgb(204, 204, 204)" stroke-width="1px"></line><line x1="55.550000000000004" y1="0" x2="55.550000000000004" y2="5" style="visibility: inherit;" fill="rgb(0, 0, 0)" stroke="rgb(204, 204, 204)" stroke-width="1px"></line><line x1="83.325" y1="0" x2="83.325" y2="5" style="visibility: inherit;" fill="rgb(0, 0, 0)" stroke="rgb(204, 204, 204)" stroke-width="1px"></line><line x1="111.10000000000001" y1="0" x2="111.10000000000001" y2="5" style="visibility: inherit;" fill="rgb(0, 0, 0)" stroke="rgb(204, 204, 204)" stroke-width="1px"></line><line x1="138.875" y1="0" x2="138.875" y2="5" style="visibility: inherit;" fill="rgb(0, 0, 0)" stroke="rgb(204, 204, 204)" stroke-width="1px"></line><line x1="166.65" y1="0" x2="166.65" y2="5" style="visibility: inherit;" fill="rgb(0, 0, 0)" stroke="rgb(204, 204, 204)" stroke-width="1px"></line><line x1="194.42499999999998" y1="0" x2="194.42499999999998" y2="5" style="visibility: inherit;" fill="rgb(0, 0, 0)" stroke="rgb(204, 204, 204)" stroke-width="1px"></line><line x1="222.20000000000002" y1="0" x2="222.20000000000002" y2="5" style="visibility: inherit;" fill="rgb(0, 0, 0)" stroke="rgb(204, 204, 204)" stroke-width="1px"></line><line x1="249.975" y1="0" x2="249.975" y2="5" style="visibility: inherit;" fill="rgb(0, 0, 0)" stroke="rgb(204, 204, 204)" stroke-width="1px"></line><line x1="277.75" y1="0" x2="277.75" y2="5" style="visibility: inherit;" fill="rgb(0, 0, 0)" stroke="rgb(204, 204, 204)" stroke-width="1px"></line></g><g transform="translate(0, 8)"><text x="0" y="0" dx="0em" dy="0.95em" style="text-anchor: middle; visibility: hidden; font-family: &quot;Helvetica Neue&quot;, sans-serif; font-size: 12px; font-weight: 200;" fill="rgb(50, 49, 63)" stroke="none" stroke-width="1px">-500</text><text x="27.775000000000002" y="0" dx="0em" dy="0.95em" style="text-anchor: middle; visibility: inherit; font-family: &quot;Helvetica Neue&quot;, sans-serif; font-size: 12px; font-weight: 200;" fill="rgb(50, 49, 63)" stroke="none" stroke-width="1px">0</text><text x="55.550000000000004" y="0" dx="0em" dy="0.95em" style="text-anchor: middle; visibility: inherit; font-family: &quot;Helvetica Neue&quot;, sans-serif; font-size: 12px; font-weight: 200;" fill="rgb(50, 49, 63)" stroke="none" stroke-width="1px">500</text><text x="83.325" y="0" dx="0em" dy="0.95em" style="text-anchor: middle; visibility: inherit; font-family: &quot;Helvetica Neue&quot;, sans-serif; font-size: 12px; font-weight: 200;" fill="rgb(50, 49, 63)" stroke="none" stroke-width="1px">1k</text><text x="111.10000000000001" y="0" dx="0em" dy="0.95em" style="text-anchor: middle; visibility: inherit; font-family: &quot;Helvetica Neue&quot;, sans-serif; font-size: 12px; font-weight: 200;" fill="rgb(50, 49, 63)" stroke="none" stroke-width="1px">1.5k</text><text x="138.875" y="0" dx="0em" dy="0.95em" style="text-anchor: middle; visibility: inherit; font-family: &quot;Helvetica Neue&quot;, sans-serif; font-size: 12px; font-weight: 200;" fill="rgb(50, 49, 63)" stroke="none" stroke-width="1px">2k</text><text x="166.65" y="0" dx="0em" dy="0.95em" style="text-anchor: middle; visibility: inherit; font-family: &quot;Helvetica Neue&quot;, sans-serif; font-size: 12px; font-weight: 200;" fill="rgb(50, 49, 63)" stroke="none" stroke-width="1px">2.5k</text><text x="194.42499999999998" y="0" dx="0em" dy="0.95em" style="text-anchor: middle; visibility: inherit; font-family: &quot;Helvetica Neue&quot;, sans-serif; font-size: 12px; font-weight: 200;" fill="rgb(50, 49, 63)" stroke="none" stroke-width="1px">3k</text><text x="222.20000000000002" y="0" dx="0em" dy="0.95em" style="text-anchor: middle; visibility: inherit; font-family: &quot;Helvetica Neue&quot;, sans-serif; font-size: 12px; font-weight: 200;" fill="rgb(50, 49, 63)" stroke="none" stroke-width="1px">3.5k</text><text x="249.975" y="0" dx="0em" dy="0.95em" style="text-anchor: middle; visibility: inherit; font-family: &quot;Helvetica Neue&quot;, sans-serif; font-size: 12px; font-weight: 200;" fill="rgb(50, 49, 63)" stroke="none" stroke-width="1px">4k</text><text x="277.75" y="0" dx="0em" dy="0.95em" style="text-anchor: middle; visibility: hidden; font-family: &quot;Helvetica Neue&quot;, sans-serif; font-size: 12px; font-weight: 200;" fill="rgb(50, 49, 63)" stroke="none" stroke-width="1px">4.5k</text></g><line x1="0" y1="0" x2="277.75" y2="0" fill="rgb(0, 0, 0)" stroke="rgb(204, 204, 204)" stroke-width="1px"></line></g></g></g></g></svg>