<svg viewBox="0 0 330 200" xmlns="http://www.w3.org/2000/svg"><g><g><g><g><g><line x1="31.125" y1="176" x2="26.125" y2="176" style="visibility: inherit;" fill="rgb(0, 0, 0)" stroke="rgb(204, 204, 204)" stroke-width="1px"></line><line x1="31.125" y1="154" x2="26.125" y2="154" style="visibility: inherit;" fill="rgb(0, 0, 0)" stroke="rgb(204, 204, 204)" stroke-width="1px"></line><line x1="31.125" y1="132" x2="26.125" y2="132" style="visibility: inherit;" fill="rgb(0, 0, 0)" stroke="rgb(204, 204, 204)" stroke-width="1px"></line><line x1="31.125" y1="110" x2="26.125" y2="110" style="visibility: inherit;" fill="rgb(0, 0, 0)" stroke="rgb(204, 204, 204)" stroke-width="1px"></line><line x1="31.125" y1="88" x2="26.125" y2="88" style="visibility: inherit;" fill="rgb(0, 0, 0)" stroke="rgb(204, 204, 204)" stroke-width="1px"></line><line x1="31.125" y1="66" x2="26.125" y2="66" style="visibility: inherit;" fill="rgb(0, 0, 0)" stroke="rgb(204, 204, 204)" stroke-width="1px"></line><line x1="31.125" y1="44" x2="26.125" y2="44" style="visibility: inherit;" fill="rgb(0, 0, 0)" stroke="rgb(204, 204, 204)" stroke-width="1px"></line><line x1="31.125" y1="22" x2="26.125" y2="22" style="visibility: inherit;" fill="rgb(0, 0, 0)" stroke="rgb(204, 204, 204)" stroke-width="1px"></line><line x1="31.125" y1="0" x2="26.125" y2="0" style="visibility: inherit;" fill="rgb(0, 0, 0)" stroke="rgb(204, 204, 204)" stroke-width="1px"></line></g><g transform="translate(21.125, 0)"><text x="0" y="176" dx="0em" dy="0.3em" style="text-anchor: end; visibility: hidden; font-family: &quot;Helvetica Neue&quot;, sans-serif; font-size: 12px; font-weight: 200;" fill="rgb(50, 49, 63)" stroke="none" stroke-width="1px">-5</text><text x="0" y="154" dx="0em" dy="0.3em" style="text-anchor: end; visibility: inherit; font-family: &quot;Helvetica Neue&quot;, sans-serif; font-size: 12px; font-weight: 200;" fill="rgb(50, 49, 63)" stroke="none" stroke-width="1px">0</text><text x="0" y="132" dx="0em" dy="0.3em" style="text-anchor: end; visibility: hidden; font-family: &quot;Helvetica Neue&quot;, sans-serif; font-size: 12px; font-weight: 200;" fill="rgb(50, 49, 63)" stroke="none" stroke-width="1px">5</text><text x="0" y="110" dx="0em" dy="0.3em" style="text-anchor: end; visibility: inherit; font-family: &quot;Helvetica Neue&quot;, sans-serif; font-size: 12px; font-weight: 200;" fill="rgb(50, 49, 63)" stroke="none" stroke-width="1px">10</text><text x="0" y="88" dx="0em" dy="0.3em" style="text-anchor: end; visibility: hidden; font-family: &quot;Helvetica Neue&quot;, sans-serif; font-size: 12px; font-weight: 200;" fill="rgb(50, 49, 63)" stroke="none" stroke-width="1px">15</text><text x="0" y="66" dx="0em" dy="0.3em" style="text-anchor: end; visibility: inherit; font-family: &quot;Helvetica Neue&quot;, sans-serif; font-size: 12px; font-weight: 200;" fill="rgb(50, 49, 63)" stroke="none" stroke-width="1px">20</text><text x="0" y="44" dx="0em" dy="0.3em" style="text-anchor: end; visibility: hidden; font-family: &quot;Helvetica Neue&quot;, sans-serif; font-size: 12px; font-weight: 200;" fill="rgb(50, 49, 63)" stroke="none" stroke-width="1px">25</text><text x="0" y="22" dx="0em" dy="0.3em" style="text-anchor: end; visibility: inherit; font-family: &quot;Helvetica Neue&quot;, sans-serif; font-size: 12px; font-weight: 200;" fill="rgb(50, 49, 63)" stroke="none" stroke-width="1px">30</text><text x="0" y="0" dx="0em" dy="0.3em" style="text-anchor: end; visibility: hidden; font-family: &quot;Helvetica Neue&quot;, sans-serif; font-size: 12px; font-weight: 200;" fill="rgb(50, 49, 63)" stroke="none" stroke-width="1px">35</text></g><line x1="31.125" y1="0" x2="31.125" y2="176" fill="rgb(0, 0, 0)" stroke="rgb(204, 204, 204)" stroke-width="1px"></line></g></g><g transform="translate(31, 0)" clip-path="url(#clip_0)"><clipPath id="clip_0"><rect width="298" height="176"></rect></clipPath><g><g><g><line x1="0" y1="0" x2="0" y2="176" fill="rgb(0, 0, 0)" stroke="rgb(60, 60, 60)" stroke-width="1px" opacity="0.25"></line><line x1="29.887500000000003" y1="0" x2="29.887500000000003" y2="176" fill="rgb(0, 0, 0)" stroke="rgb(60, 60, 60)" stroke-width="1px" opacity="0.25"></line><line x1="59.775000000000006" y1="0" x2="59.775000000000006" y2="176" fill="rgb(0, 0, 0)" stroke="rgb(60, 60, 60)" stroke-width="1px" opacity="0.25"></line><line x1="89.6625" y1="0" x2="89.6625" y2="176" fill="rgb(0, 0, 0)" stroke="rgb(60, 60, 60)" stroke-width="1px" opacity="0.25"></line><line x1="119.55000000000001" y1="0" x2="119.55000000000001" y2="176" fill="rgb(0, 0, 0)" stroke="rgb(60, 60, 60)" stroke-width="1px" opacity="0.25"></line><line x1="149.4375" y1="0" x2="149.4375" y2="176" fill="rgb(0, 0, 0)" stroke="rgb(60, 60, 60)" stroke-width="1px" opacity="0.25"></line><line x1="179.325" y1="0" x2="179.325" y2="176" fill="rgb(0, 0, 0)" stroke="rgb(60, 60, 60)" stroke-width="1px" opacity="0.25"></line><line x1="209.21249999999998" y1="0" x2="209.21249999999998" y2="176" fill="rgb(0, 0, 0)" stroke="rgb(60, 60, 60)" stroke-width="1px" opacity="0.25"></line><line x1="239.10000000000002" y1="0" x2="239.10000000000002" y2="176" fill="rgb(0, 0, 0)" stroke="rgb(60, 60, 60)" stroke-width="1px" opacity="0.25"></line><line x1="268.9875" y1="0" x2="268.9875" y2="176" fill="rgb(0, 0, 0)" stroke="rgb(60, 60, 60)" stroke-width="1px" opacity="0.25"></line><line x1="298.875" y1="0" x2="298.875" y2="176" fill="rgb(0, 0, 0)" stroke="rgb(60, 60, 60)" stroke-width="1px" opacity="0.25"></line></g><g><line x1="0" y1="176" x2="298.875" y2="176" fill="rgb(0, 0, 0)" stroke="rgb(60, 60, 60)" stroke-width="1px" opacity="0.25"></line><line x1="0" y1="154" x2="298.875" y2="154" fill="rgb(0, 0, 0)" stroke="rgb(60, 60, 60)" stroke-width="1px" opacity="0.25"></line><line x1="0" y1="132" x2="298.875" y2="132" fill="rgb(0, 0, 0)" stroke="rgb(60, 60, 60)" stroke-width="1px" opacity="0.25"></line><line x1="0" y1="110" x2="298.875" y2="110" fill="rgb(0, 0, 0)" stroke="rgb(60, 60, 60)" stroke-width="1px" opacity="0.25"></line><line x1="0" y1="88" x2="298.875" y2="88" fill="rgb(0, 0, 0)" stroke="rgb(60, 60, 60)" stroke-width="1px" opacity="0.25"></line><line x1="0" y1="66" x2="298.875" y2="66" fill="rgb(0, 0, 0)" stroke="rgb(60, 60, 60)" stroke-width="1px" opacity="0.25"></line><line x1="0" y1="44" x2="298.875" y2="44" fill="rgb(0, 0, 0)" stroke="rgb(60, 60, 60)" stroke-width="1px" opacity="0.25"></line><line x1="0" y1="22" x2="298.875" y2="22" fill="rgb(0, 0, 0)" stroke="rgb(60, 60, 60)" stroke-width="1px" opacity="0.25"></line><line x1="0" y1="0" x2="298.875" y2="0" fill="rgb(0, 0, 0)" stroke="rgb(60, 60, 60)" stroke-width="1px" opacity="0.25"></line></g></g></g><g><g><line x1="0" y1="154" x2="298.875" y2="154" fill="rgb(0, 0, 0)" stroke="rgb(153, 153, 153)" stroke-width="1.5px"></line></g></g><g><g><line x1="29.887500000000003" y1="0" x2="29.887500000000003" y2="176" fill="rgb(0, 0, 0)" stroke="rgb(153, 153, 153)" stroke-width="1.5px"></line></g></g><g><g><g><g><g><path stroke="rgb(51, 187, 238)" stroke-width="2px" d="M30.186375,131.71095542907716L30.784125,133.97158584594726L30.963449999999998,127.04252033233642L31.322100000000002,133.40746574401857L32.2785,137.40971632003783L32.39805,142.50547542572022L32.5176,143.76971549987792L32.577374999999996,148.8720956325531L32.696925,149.96629285812378L33.055575000000005,147.68500785827638L33.11535,145.83508672714234L33.234899999999996,145.96118731498717L33.772875,146.03808155059815L34.131524999999996,145.409680891037L34.1913,149.16670904159545L34.251075,143.9299891471863L34.31085,150.42653999328613L34.609725,145.5045090198517L35.087925,146.05687408447267L35.50635,147.5489508152008L35.98455,149.37600283622743L36.163875,145.28830046653746L36.22365,150.29335680007935L36.642075,146.47242259979248L36.94095,148.06599621772767L37.41915,149.64515075683593L37.598475,145.73546028137207L37.65825,149.1806266784668L38.196225,146.7124695777893L38.315775,145.51597399711608L38.37555,149.42506074905396L38.85375,146.37547068595887L39.152625,147.3887107372284L39.33195,149.28873147964478L39.869924999999995,149.82060692310333L39.9297,144.38414344787597L40.109025,149.89226958751678L40.467675,148.16310653686523L40.52745,147.13789849281312L40.826325,147.57496547698975L40.945875,147.20840826034546L41.005649999999996,148.17927646636963L41.24475,148.86761517524718L41.304525,147.22401852607726L41.72295,149.8287915468216L42.20115,148.77691764831542L42.260925,145.93916687965392L42.3207,148.89548873901367L42.5598,148.8574604511261L43.217325,146.94645309448242L43.57597500000001,142.51712608337402L43.87485,147.0419720172882L44.054175,146.88406920433044L44.771474999999995,144.53163661956788L45.130125,146.13042135238646L45.429,148.41368851661682L45.608325,144.69328451156616L45.847425,142.89055347442627L46.086525,143.90612344741822L46.206075,144.4897976875305L47.341800000000006,145.31022753715516L47.640674999999995,146.6435847759247L47.70045,148.30750713348388L47.999325,146.7229877948761L48.238425,147.3465534210205L48.2982,146.77093162536622L48.41775,145.03357162475587L48.89595,144.68647413253785L48.955725,149.63230183124543L49.314375000000005,147.25852885246277L49.37415000000001,147.03863029479982L49.433924999999995,147.0526921749115L49.61325,145.89129123687744L50.151225000000004,146.85919485092163L50.629425,145.2697717666626L51.585825,148.92992877960205L51.824925,148.1315933227539L52.183575000000005,149.51690802574157L52.422675,150.16890294551848L52.542225,148.99851250648499L53.259525,150.31770505905152L53.3193,143.44273862838745L54.2757,144.9129874229431L55.052775000000004,150.64644458293915L55.112550000000006,142.1963249206543L55.232099999999996,143.50841178894044L55.59075,147.6202851295471L56.128724999999996,149.67813603878022L56.248275,150.0841841697693L56.30805,143.31638469696045L56.487375,148.02873845100402L56.846025000000004,146.4843218803406L57.384,143.06445417404174L57.563325,148.7093194961548L57.6231,145.46002073287963L58.161075,149.77604546546937L58.22085,145.75139837265016L59.117475,148.0146188735962L59.237024999999996,148.68747425079346L59.356575,147.99447779655458L60.193425,149.05982637405396L60.4923,146.02077236175538L60.611850000000004,143.8479100227356L60.791175,148.30126008987426L61.269375,141.76465473175048L61.628025,142.91626653671264L61.747575000000005,141.92099866867065L61.926899999999996,149.49522957801818L62.28555,149.56956205368041L62.584425,148.370032119751L62.644200000000005,145.15161819458007L63.182175,149.87646734714508L63.301725,149.88365066051483L63.540825000000005,149.50496468544006L63.6006,145.83167996406556L63.899474999999995,149.3913209438324L64.138575,148.4698893547058L64.19834999999999,145.51675815582274L64.497225,147.09144639968872L64.616775,145.85475363731385L64.67655,149.11414260864257L64.7961,148.19430503845214L64.91565,147.77624039649965L64.975425,147.14219484329223L65.2743,148.2252407550812L65.334075,144.58289594650267L65.87205,149.45304918289185L66.2307,150.15571281909942L66.35025,148.60907516479492L66.649125,147.36724472045898L66.94800000000001,149.41762146949767L67.06755,149.27034335136415L67.78485,150.07978737354279L68.20327499999999,146.73681888580322L68.26304999999999,148.55176863670349L68.3826,147.51359915733337L68.442375,149.11620817184448L68.50215,147.37000107765198L68.561925,148.6677559375763L68.681475,147.92576503753662L68.8608,143.14414463043212L69.09989999999999,144.8333724975586L69.398775,150.50325746536254L69.5781,146.01965618133545L69.8172,144.58276481628417L69.99652499999999,150.14877078533172L70.0563,144.6782307624817L70.17585,142.39809551239014L70.235625,149.99051654338837L70.41495,144.71009225845336L70.474725,149.2600197315216L70.65405,146.93453283309935L70.713825,148.64987292289734L71.0127,147.30819783210754L71.072475,147.1021906852722L71.4909,147.70020008087158L71.670225,148.0566707611084L71.909325,150.5840276479721L72.08865,143.638623046875L72.2082,144.3760259628296L72.32775,146.39026322364808L72.56685,146.05266585350037L72.80595000000001,144.57632160186768L72.985275,148.41235780715942L73.04505,145.41836748123168L73.104825,149.31849279403687L73.52325,148.17104148864746L73.8819,144.10754261016845L74.00144999999999,144.03143882751465L74.061225,150.2660489320755L74.300325,149.70836234092712L74.53942500000001,147.79770851135254L74.71875,145.4630236148834L74.77852499999999,148.05260782241822L74.8383,145.30986247062683L74.95785000000001,143.59945497512817L75.0774,141.4094229698181L75.615375,148.70157284736632L75.67514999999999,145.48449540138245L75.85447500000001,148.61714386940002L75.91425,144.45627975463867L75.974025,149.3819655895233L76.093575,149.54719071388246L76.15335,145.84846515655516L76.512,144.95186386108398L76.7511,147.97813057899475L76.810875,146.9531596183777L76.930425,145.92761850357056L77.04997499999999,146.64217381477357L77.22930000000001,148.9741789340973L77.289075,146.36265349388123L77.34885,148.22380619049073L77.408625,146.09642925262452L77.58794999999999,148.136635017395L77.82705,144.5683069229126L78.006375,148.72319359779357L78.12592500000001,149.47750706672667L78.1857,145.35643362998962L78.245475,149.07194857597352L78.60412500000001,150.24642293453218L78.6639,144.13368997573852L78.962775,149.2774799823761L79.201875,148.70740656852723L79.3812,144.3685022354126L79.62030000000001,144.937353515625L79.8594,145.08495683670043L79.97895,144.23356609344484L80.277825,148.137446975708L80.45715,144.48382024765016L81.712425,148.34506597518921L81.831975,148.1399688720703L81.89175,145.00030965805053L82.13085,144.9432858467102L82.2504,143.71778373718263L82.4895,144.74497289657592L82.60905,143.47543411254884L82.7286,144.78965578079223L83.08725000000001,144.7866261482239L83.4459,146.04850587844848L83.685,146.0290729045868L84.103425,149.45382862091066L84.1632,143.7614595413208L84.222975,149.07209386825562L84.28275,147.13478651046753L84.58162499999999,149.18821649551393L84.70117499999999,148.67618708610536L84.8805,150.36043462753295L84.940275,145.88424797058104L85.00005,148.51416311264038L85.059825,147.4867594242096L85.538025,146.00108709335328L85.59779999999999,149.3707754611969L85.777125,145.5708236694336L86.19555,149.53744039535522L86.37487499999999,145.70810022354127L86.91285,150.987105679512L87.03240000000001,150.46661076545715L87.092175,144.9968572616577L87.15195000000001,148.69906668663026L87.331275,146.19402685165406L87.39104999999999,149.49616689682006L87.63015,149.6627410888672L87.92902500000001,145.93488783836364L87.9888,149.23939504623414L88.2279,148.8005971431732L88.287675,147.88868350982665L88.34745,145.4712648868561L88.407225,147.1339289188385L88.64632499999999,146.71105546951293L88.7061,148.39478425979615L88.885425,147.04337406158447L88.9452,149.6632669210434L89.4234,149.60208654403687L89.6625,149.88921399116515L89.78205,148.77452635765076L89.9016,149.17635235786437L89.961375,145.53465061187745L90.3798,146.97207908630372L90.43957499999999,146.2905927181244L90.49935,147.29772210121155L90.678675,143.7923894882202L91.156875,146.837987947464L91.276425,146.10991888046266L91.51552500000001,147.48648929595947L91.5753,145.60611920356752L91.754625,150.21941561698912L91.87417500000001,148.82180037498475L92.29260000000001,143.28093338012695L92.950125,148.4664186000824L93.069675,147.51974968910218L93.428325,150.5070691585541L93.4881,146.99030356407167L93.60764999999999,146.96972398757936L93.7272,146.24556679725646L93.9663,149.52405567169188L94.2054,148.6549376964569L94.32495,146.99487948417664L94.623825,145.776988697052L94.68360000000001,148.68211417198182L94.743375,146.1991409301758L95.221575,141.88986206054688L95.580225,145.56230492591857L95.81932499999999,145.1277021408081L95.8791,149.31482796669007L95.938875,145.5911976337433L96.47685,147.86508531570433L96.5964,148.37704129219054L96.775725,147.38917388916016L97.134375,144.8659242630005L97.19415,150.69344663619995L97.612575,146.98152832984925L97.73212500000001,147.3538164615631L98.927625,145.85810585021972L98.9874,149.86887595653533L99.047175,146.83326148986816L99.2265,148.6172655582428L99.286275,146.94328393936158L99.34604999999999,148.13574333190917L100.42200000000001,149.06572828292846L100.601325,147.61468062400817L100.720875,149.14417352676392L101.13929999999999,147.03280811309816L101.19907500000001,148.2090928554535L101.55772499999999,150.0939607143402L101.677275,149.4517279148102L101.97615,145.11603050231935L102.09570000000001,145.55849952697753L102.21525000000001,143.79697904586791L102.45435,147.65986967086792L103.0521,150.3327624797821L103.5303,149.32776789665223L103.590075,145.5111274242401L103.64985,147.58119835853577L103.7694,149.08787512779236L103.948725,145.48012351989746L104.2476,150.25729966163635L104.426925,147.1438255786896L104.78557500000001,144.43896322250367L104.905125,146.42311658859253L105.024675,144.98009357452392L105.08445,150.606245303154L105.26377500000001,145.49728426933288L105.38332500000001,146.92305212020875L105.56265,148.48004460334778L106.04085,149.72937989234924L106.459275,146.1917824268341L106.817925,143.58360919952392L107.05702500000001,145.99342436790465L107.1168,150.40785839557648L107.17657499999999,146.8127779006958L107.23635,149.78424451351165L107.595,150.04934365749358L107.77432499999999,145.63687448501588L108.19274999999999,149.46390414237976L108.3123,147.63474249839783L108.491625,150.7037031173706L108.5514,146.30412797927858L108.730725,151.27919981479644L109.089375,149.00940628051757L109.20892500000001,149.32781300544738L109.38825,148.2327214717865L109.56757499999999,146.52945742607116L109.62735,149.2529927253723L109.74690000000001,150.34377794265748L109.806675,144.8814175605774L110.165325,147.3547821044922L110.882625,148.44494156837465L111.54015,146.06280012130736L111.77925,145.23013739585878L112.197675,150.32432136535644L112.31722500000001,150.78602850437164L112.6161,145.7210380554199L112.675875,149.00604829788207L112.8552,146.52675404548646L112.91497500000001,150.14337635040283L113.03452499999999,149.2270981788635L113.0943,145.202140045166L113.273625,149.3956865310669L114.2898,144.14337682724L114.349575,150.96571414470674L114.40934999999999,145.90419759750367L114.708225,148.94397020339966L114.88755,146.75871500968933L115.12665,144.22861356735228L115.186425,151.27835009098052L115.2462,146.0308494567871L115.48530000000001,144.1251371383667L115.545075,150.59302055835724L115.7244,145.1297519683838L115.96350000000001,145.5534767150879L116.08305,146.97114019393922L116.86012500000001,150.56395475864412L116.9199,146.58210883140563L117.457875,149.27033758163452L117.51765,148.53001885414125L118.175175,148.11147742271424L118.65337500000001,149.87843403816223L118.71315,146.3109016418457L118.89247499999999,148.73200817108153L119.012025,150.85830957889556L119.0718,146.44389600753783L119.55000000000001,149.1862380027771L119.609775,147.36229953765869L119.66954999999999,150.43564331531525L119.90865,149.93259921073914L120.0282,149.44132719039916L120.14775,150.63877241611482L120.62595,148.17000188827515L120.924825,146.37687430381774L120.9846,148.0768343925476L121.16392499999999,147.65717468261718L121.58235,149.64540934562683L122.29965,148.82663750648499L122.59852500000001,147.09308342933656L122.6583,147.59530062675475L122.77785,148.37149658203126L122.83762499999999,145.02198810577391L123.196275,146.5847487449646L123.61470000000001,150.98662705421447L123.674475,145.28574395179749L124.21245,149.72747116088868L124.45155,150.56453042030336L124.5711,149.70476281642914L124.81020000000001,148.24749250411986L125.348175,146.63097739219666L125.7666,148.5536406517029L125.826375,147.01292300224304L126.12525,149.81528565883636L126.60345,148.75130162239074L126.723,148.3479235649109L127.141425,146.99731116294862L127.2012,149.05250563621522L127.4403,146.55701313018798L127.739175,149.42130885124206L127.9185,145.03158264160157L128.03805,146.11273503303528L128.217375,149.3835674762726L128.39669999999998,147.28670926094054L128.6358,146.2023656845093L129.114,148.57837600708007L129.5922,148.47196593284608L129.71175,147.92234988212584L129.8313,147.51361646652222L130.010625,148.25884680747987L130.0704,149.11321997642517L130.42905,150.44748935699462L130.488825,144.309077167511L130.967025,146.39727816581726L131.14635,149.29066381454467L131.20612500000001,148.08264608383178L131.2659,147.63273673057557L131.325675,148.55448985099792L131.445225,149.02423605918884L131.62455,147.1419734954834L132.042975,149.59356360435487L132.10275000000001,146.1589421749115L132.521175,149.89346418380737L132.58095,147.6505337238312L132.640725,150.33237669467925L133.1787,144.9132119178772L133.4178,145.43584294319152L133.53735,148.34548768997192L133.597125,148.76041674613953L133.716675,148.62538828849793L134.01555000000002,148.27310905456542L134.075325,146.26651353836058L134.194875,145.29912605285645L134.25465,150.26991124153136L134.314425,147.06184821128846L134.6133,150.05528962612152L135.45015,148.40044016838073L135.988125,150.40442514419556L136.346775,148.91035628318787L136.7652,144.56604518890381L136.824975,149.88941724300383L137.36295,147.33698406219483L137.781375,144.40094385147094L138.259575,146.78221669197083L138.31935,149.46865525245667L138.498675,146.26550645828246L138.9171,150.75586829185485L139.03665,150.1219307899475L139.27575000000002,148.89369225502014L139.8735,147.57867960929872L139.933275,147.23038096427916L140.1126,149.3966579437256L140.411475,145.42135462760925L140.650575,145.37126603126526L141.42765,151.0100786447525L141.5472,149.181316947937L141.606975,144.34430503845215L141.965625,149.0602271080017L142.0254,148.72122926712035L142.085175,148.10077877044677L142.204725,147.21513996124267L142.324275,147.31500401496888L143.041575,146.0787072658539L143.57955,147.40798320770264L143.81865,147.04433131217957L144.117525,149.9511774778366L144.1773,145.59749608039857L144.476175,149.8732271194458L144.834825,149.61485154628753L144.8946,145.11794080734253L145.25325,146.503560256958L145.49235000000002,146.86724467277526L145.61190000000002,146.51960377693177L145.73145,146.3705449104309L146.0901,146.33497977256775L146.269425,150.22735397815705L146.38897500000002,148.9466510295868L146.5683,145.60357580184936L146.747625,149.52336225509643L146.92695,146.96813731193544L147.0465,147.659153175354L147.464925,145.0899492263794L147.584475,144.93013401031493L148.301775,146.0470498085022L148.36155,151.2317120552063L148.421325,145.70928878784179L149.258175,145.7334020614624L149.497275,144.8344792366028L149.736375,146.0383107662201L149.79614999999998,149.60733830928802L149.97547500000002,144.8452214241028L150.03525,150.635018157959L150.21457500000002,148.0322947025299L150.334125,148.57645626068114L150.45367499999998,148.31497211456298L150.931875,148.63681812286376L151.051425,149.28268585205078L151.23075,147.07068848609924L151.410075,150.62074673175812L151.58939999999998,148.07605495452881L151.70895000000002,146.52870841026305L151.888275,148.38117713928222L152.0676,146.08452472686767L152.127375,149.56360507011414L153.024,146.86959557533265L153.442425,146.70025243759156L153.7413,148.58659262657164L153.801075,146.30381903648376L153.86085,148.16471366882325L153.9804,149.46470403671265L154.040175,143.55973300933837L154.159725,143.5393690109253L154.27927499999998,145.9750587940216L154.45860000000002,149.30539708137513L154.518375,147.57929854393007L154.757475,148.2240653038025L155.05635,145.40646872520446L155.17589999999998,145.73972306251525L155.594325,151.47050647735597L155.713875,150.3940291404724L155.77365,146.37802772521974L155.952975,148.732914018631L156.072525,149.41701879501343L156.311625,150.12165174484252L156.49095,147.30135073661805L156.6105,146.8874345302582L156.73005,147.42512245178222L156.78982499999998,147.82605361938477L157.387575,147.41448726654053L157.44735,146.89276838302612L157.68644999999998,144.34116315841675L157.865775,149.8603669166565L158.04510000000002,146.49925813674926L158.10487500000002,149.98061254024506L158.16465,147.1801323890686L158.2842,145.95678920745848L158.343975,150.52187716960907L158.463525,149.8950361728668L158.7624,147.09936141967773L158.822175,149.78283669948578L159.24060000000003,146.15304446220398L159.300375,150.01538224220275L159.539475,148.12383251190187L159.659025,148.20659141540528L159.778575,148.79119091033937L160.017675,147.77587637901306L160.615425,145.43619751930237L160.734975,147.73361835479736L160.854525,150.73378517627717L160.9143,146.8032069683075L161.1534,147.49067339897155L161.27294999999998,148.8319414615631L161.33272499999998,145.76707158088684L161.810925,146.73331508636474L162.050025,148.99692530632018L162.22934999999998,150.4478150844574L162.886875,144.73859367370605L163.12597499999998,147.70946259498595L163.24552500000001,147.2962870121002L163.42485,147.2123652458191L163.5444,146.74014801979064L163.604175,149.54648208618164L163.72372499999997,150.0819712162018L163.7835,144.35006742477418L163.843275,151.05836656093598L163.90305,147.1923180580139L164.02259999999998,145.9387414932251L164.14215000000002,146.02156438827515L164.201925,149.9002619743347L164.441025,147.82130670547485L164.5008,148.22436060905457L164.62034999999997,148.0829807281494L164.799675,148.11138668060303L165.09855,148.73729062080383L165.81584999999998,150.68340363502503L166.05495,150.47484941482543L166.234275,145.72035722732545L166.65269999999998,148.81941328048705L166.83202500000002,150.2414397239685L167.190675,148.8821858406067L167.25045,147.52279191017152L167.37,147.70361104011536L167.549325,147.1599462032318L167.72865000000002,151.2098175048828L167.788425,146.1079472064972L167.8482,149.79848184585572L168.44595,150.2136978149414L168.50572499999998,146.06118459701537L168.5655,150.10317208766938L168.68505,148.70528855323792L168.983925,145.7385507583618L169.40234999999998,150.4061502933502L169.462125,145.9540527820587L169.52190000000002,148.95428018569947L169.58167500000002,146.9429923057556L170.05987499999998,146.28818831443786L170.59785,148.87101144790648L170.896725,147.2511803150177L171.37492500000002,145.30504684448243L171.4347,149.35245709419252L171.61402500000003,147.25093746185303L172.27155000000002,150.83001298904418L172.450875,145.84107413291932L172.6302,149.7124756336212L172.689975,145.56249690055847L172.74974999999998,150.1266470193863L172.8693,150.41611487865447L173.3475,146.45453119277954L173.46705,146.67320184707643L173.5866,145.80601358413696L173.70615,147.20653676986694L174.30390000000003,145.57763509750367L174.78209999999999,145.29124040603637L174.841875,150.4242121696472L175.14075,147.1460810184479L175.4994,147.61873621940612L175.9776,147.5626088142395L176.33624999999998,146.93936052322388L176.39602499999998,148.8097767829895L176.4558,148.38254404067993L176.515575,146.39173555374146L176.635125,147.31779289245605L176.934,148.91029596328735L178.069725,146.78335962295532L178.18927499999998,146.94945125579835L178.428375,145.9885756969452L178.48815,150.29522252082825L179.08589999999998,150.39967062473298L179.20545,149.42150082588196L179.384775,148.53944029808045L179.44455000000002,148.92577457427979L179.504325,149.1244945526123L180.102075,149.73600511550904L180.16185,146.10334873199463L180.2814,147.23770537376404L180.34117500000002,147.9472216129303L180.460725,146.74444751739503L180.699825,148.92053933143615L180.819375,148.57198157310486L180.9987,146.06672196388246L181.11825,144.69604034423827L181.23780000000002,145.08974990844726L181.35735,147.14385390281677L181.895325,150.03505570888518L182.13442500000002,150.48495903015137L182.373525,149.678284740448L182.493075,148.72552719116212L182.67239999999998,145.8022349357605L182.85172500000002,148.83509278297424L183.210375,144.9096220970154L183.27015,149.88581142425537L183.50925,150.70823707580567L183.68857500000001,147.32525787353515L183.8679,148.77780146598815L183.98745000000002,149.0903036594391L184.286325,147.055309009552L184.52542499999998,147.8192500591278L184.70475,146.95238699913025L184.764525,148.57288374900818L184.8243,146.81471338272095L184.88407500000002,149.86399660110473L185.0634,145.4714143753052L185.3025,146.94961490631104L185.66115,146.57279229164124L185.720925,148.4977062702179L185.90025,148.09833397865296L186.37845000000002,150.2849930524826L186.67732500000002,146.4681939125061L186.85665,150.54484043121337L187.035975,146.58178730010985L187.09575,147.9931161403656L187.21529999999998,148.33542318344115L187.394625,146.06224098205567L187.4544,149.81490590572358L187.57395000000002,150.73279461860656L187.9326,149.75312049388884L188.11192499999999,146.91092729568481L188.29125,148.5822118282318L188.351025,146.97781839370728L188.590125,145.33122148513795L188.94877499999998,147.37505693435668L189.72585,149.2959614753723L189.96495000000002,147.76198024749755L190.0845,146.6275800704956L190.383375,150.45431389808655L190.68225,147.6193913459778L190.92135000000002,148.30680060386658L191.220225,147.73520503044128L191.45932499999998,149.97811975479127L191.698425,150.44432072639466L191.87775,146.44543285369872L192.774375,150.21492676734925L193.372125,150.169775223732L193.4319,147.5505537509918L193.491675,149.827424120903L193.671,146.39012789726257L194.02965,145.42056260108947L194.3883,145.96969976425171L194.448075,149.20693559646605L194.50785000000002,145.7934109210968L194.56762500000002,148.4082618236542L194.6274,145.27441744804383L194.687175,149.68036682605742L194.74695,146.66674814224243L195.22515,145.7292489051819L196.59997500000003,148.5984441757202L196.65975,143.4297577857971L196.719525,149.8893042087555L197.13795,147.67602124214173L197.795475,148.6001446723938L197.915025,149.62367057800293L198.15412500000002,150.5243198633194L198.63232499999998,149.49165759086608L198.69209999999998,144.56833419799804L198.871425,150.08469557762146L198.990975,149.35190057754517L199.05075000000002,144.15489110946655L199.1703,146.39448981285096L200.306025,146.82996172904967L200.60490000000001,144.60954580307006L200.784225,150.01712810993195L200.96355,147.76455354690552L201.50152500000002,149.9679015636444L201.5613,145.47340440750122L201.91995,146.62955384254457L202.0395,146.87266244888306L202.099275,149.53533024787902L202.457925,148.9551031589508L202.63725000000002,145.48832125663756L202.697025,149.99358394145966L202.9959,147.48737626075746L203.11544999999998,146.6032832145691L203.235,146.69435892105102L203.414325,149.27964520454407L203.4741,147.14491605758667L203.9523,147.51943445205688L204.251175,149.7966287136078L204.370725,149.6422171115875L204.43050000000002,147.0116678237915L204.490275,148.7390986442566L205.1478,147.59353246688843L205.74555,150.322945022583L206.22375,148.8109013557434L207.239925,145.39579944610597L207.5388,149.43145308494567L207.65834999999998,148.98329982757568L207.718125,147.8466746330261L207.89745,148.9436324119568L208.4952,148.78455624580383L208.85385,148.53975973129272L209.09295,145.77996010780333L209.391825,149.02144088745118L209.511375,149.67216095924377L209.63092500000002,150.1346428155899L209.750475,150.05222170352937L209.87002500000003,147.84778399467467L210.10912499999998,145.8208333969116L210.1689,147.67082901000975L210.34822499999999,148.7538146018982L210.408,146.59637947082518L210.46777500000002,148.1821078300476L210.706875,151.16976482868193L210.826425,150.91316266059874L211.00574999999998,145.75141515731812L211.065525,150.03267753124237L211.185075,149.55987153053283L211.48395,146.91713080406188L211.6035,147.40461945533752L211.66327500000003,147.7270088672638L211.72305,146.6519577026367L212.0817,147.02087159156798L212.20125,147.07117629051208L212.380575,145.63575620651244L212.91855,150.12867586612703L213.097875,144.92599658966066L213.21742500000002,146.73122382164001L213.336975,145.80312190055847L213.45652499999997,146.97037019729615L213.576075,147.7822403907776L214.11405000000002,146.03221740722657L214.35314999999997,144.34200763702393L214.4727,146.7058747768402L214.65202499999998,149.2073426246643L215.130225,149.4301019191742L215.369325,147.9549934387207L215.608425,145.24712715148925L215.967075,148.23891763687135L216.38549999999998,146.7859402656555L216.50505,147.91459221839904L216.80392500000002,148.21873197555541L217.22235,150.3379861831665L217.401675,146.53300318717956L217.46145,148.04572401046752L217.760325,146.4490620136261L217.8201,149.66409304142L217.879875,146.99986138343812L217.999425,144.36469526290892L218.17875,149.6254589319229L218.477625,147.33728775978088L218.65695,144.74360389709472L218.716725,149.21741919517518L218.836275,149.09940881729125L219.194925,147.60476455688476L219.792675,143.9373953819275L220.21110000000002,149.12528762817382L220.39042500000002,146.20548815727233L220.45020000000002,149.03830056190492L220.868625,145.8276605606079L220.92839999999998,149.79098670482637L220.98817499999998,145.36328806877137L221.04795000000001,150.28760097026824L221.34682500000002,147.50371403694152L221.52615,145.76768317222596L222.96075,146.9415755748749L223.14007500000002,148.84805316925048L223.259625,145.89270272254944L223.5585,151.21775691509248L223.73782500000002,146.08685464859008L223.79760000000002,150.4070309638977L223.91715,149.34472250938416L223.976925,146.75819730758667L224.39535,148.61844573020934L224.51489999999998,147.8608319759369L224.63445000000002,149.03468136787416L225.17242499999998,146.07906079292297L225.47129999999999,149.77846088409424L225.53107500000002,144.92605743408203L225.889725,145.64896941184998L226.009275,146.1891839504242L226.128825,145.21072697639465L226.248375,146.63649640083312L226.48747500000002,146.7161648273468L226.6668,149.66508622169493L226.9059,150.73300259113313L227.443875,146.2440981388092L227.50365,145.58227763175964L227.563425,147.34127464294434L227.92207499999998,146.88289270401L228.400275,149.99176909923554L228.639375,150.0778870344162L228.758925,150.23977489471434L228.81869999999998,144.98692178726196L228.878475,148.96255292892457L229.117575,150.0577079296112L229.41645,147.73464798927307L229.834875,146.1142346382141L230.07397500000002,146.3455231666565L230.313075,147.29821200370787L230.37285,149.93956484794617L230.552175,148.23835272789L230.791275,145.18979387283326L230.910825,146.31986937522888L231.269475,148.38892221450806L231.4488,148.07638854980468L231.56835,149.26256103515624L231.6879,150.14083845615386L231.80745,148.90683884620665L231.986775,145.76848149299622L232.106325,144.5748875617981L232.28565,150.06086685657502L232.52475,149.62851688861846L232.6443,149.5501941204071L233.00295,150.16602096557617L233.30182499999998,145.46256885528564L233.3616,150.43840675354005L233.6007,150.48002171516418L234.019125,148.03309774398804L234.497325,149.43728523254396L234.67665,145.88676671981813L234.85597500000003,149.88146603107452L234.91575,145.4076940059662L235.09507499999998,150.11081671714783L235.39395,144.63622817993163L235.75259999999997,146.88392181396483L235.812375,148.38140478134156L236.05147499999998,148.00420713424683L236.17102500000001,148.5038809299469L236.529675,148.88184909820558L236.58945,147.39988355636598L236.709,146.76460747718812L236.94809999999998,147.60887155532836L237.366525,149.67903900146484L237.725175,149.70277094841003L237.9045,146.17107853889465L238.26315,144.3107388496399L238.74134999999998,147.96772408485413L238.920675,145.1703477859497L239.040225,147.97595748901367L239.10000000000002,146.47474360466003L239.398875,150.4880429506302L239.45865,145.42984294891357L239.63797499999998,149.53387994766234L239.75752500000002,148.3172962665558L239.8173,144.75354461669923L239.93685,144.75080766677857L240.23572499999997,150.71816232204438L240.833475,145.9308443069458L241.192125,145.3396300792694L241.311675,146.73321647644042L241.37144999999998,148.6870231628418L241.61055,149.24660301208496L241.670325,147.80263061523436L241.909425,144.92551298141478L242.028975,143.65931434631347L242.387625,148.2450671195984L242.44740000000002,149.2610556602478L242.626725,146.14347615242005L242.865825,145.48161525726317L243.583125,149.4899387359619L243.88199999999998,145.90653433799744L243.941775,149.72420129776L244.061325,149.80833497047425L244.30042500000002,149.05944452285766L244.5993,147.57464027404785L244.659075,146.93283286094666L245.01772499999998,144.00556735992433L245.0775,150.3835389852524L245.19705000000002,149.58142671585082L245.91434999999998,149.0723828792572L246.15345,150.3229612827301L246.273,149.93117356300354L246.39255,148.86094589233397L246.57187499999998,146.94652757644653L246.7512,148.9010712146759L247.289175,147.07499952316283L247.647825,147.29002108573914L247.767375,145.31315331459047L248.4249,150.19551293849946L248.484675,146.80012173652648L248.843325,142.90567016601562L249.26174999999998,148.30339488983154L250.69635,146.26763758659362L250.756125,148.56980113983155L250.875675,150.02575385570526L251.05499999999998,146.12577147483825L251.17455,146.12432222366334L252.429825,150.45011982917785L252.60915,145.2577597141266L252.84824999999998,148.37553119659424L252.90802499999998,149.87925202846526L252.9678,146.35543975830078L253.08735,145.28199782371522L253.32645,145.58117456436156L253.505775,149.2430630207062L253.625325,149.32109546661377L253.74487499999998,148.79508285522462L254.16330000000002,147.05274357795716L254.342625,146.50598616600035L254.4024,146.73185377120973L254.581725,141.88716812133788L254.8806,148.8723217010498L255.3588,149.60546708106995L255.59789999999998,150.70323812961578L255.71745,150.1782661676407L255.837,149.98300330638887L255.896775,146.2119544506073L256.255425,145.6329846382141L256.494525,148.2853681564331L256.614075,147.20186486244202L256.733625,148.43108739852906L256.91295,146.80272912979126L257.45092500000004,147.1386034488678L257.570475,146.6786238193512L257.63025,146.4595576763153L257.86935,143.43855819702148L258.168225,149.5748670578003L258.287775,150.41286494731904L258.885525,150.23063406944274L259.00507500000003,150.5199089050293L259.124625,149.9243183374405L259.9017,146.29404091835022L260.1408,147.81853041648864L260.26035,148.60658578872682L260.8581,150.7133165359497L261.156975,147.3072620868683L261.5754,149.92674136161804L261.754725,146.57841777801514L261.874275,146.99031457901L262.23292499999997,147.44824228286743L262.65135,145.38828411102295L263.069775,150.04902868270875L263.12955,145.4983925819397L263.189325,149.92891550064087L263.308875,150.0155002593994L263.4882,147.00197887420654L263.547975,150.02423667907715" style="fill: none;" fill="none"></path></g><g><path stroke="rgb(255, 112, 67)" stroke-width="2px" d="M30.186375,133.86111965179444L30.784125,132.64944496154786L30.963449999999998,134.68250465393066L31.322100000000002,130.1823190689087L32.2785,126.23349094390869L32.39805,130.76270351409912L32.5176,130.12115364074708L32.577374999999996,126.59778327941895L32.696925,129.39949684143068L33.055575000000005,131.13774642944335L33.11535,131.85554485321046L33.234899999999996,130.2478464126587L33.772875,131.01680030822754L34.131524999999996,128.8620916366577L34.1913,128.75708465576173L34.251075,129.02250061035156L34.31085,129.1344774246216L34.609725,130.8035448074341L35.087925,129.23838710784912L35.50635,128.10811805725098L35.98455,130.50169353485109L36.163875,130.71289710998536L36.22365,130.29973621368407L36.642075,129.06870250701905L36.94095,129.625968170166L37.41915,130.98429679870605L37.65825,128.39580936431884L38.196225,129.72572994232178L38.37555,129.46818809509278L38.85375,128.7719118118286L39.152625,128.83756504058837L39.33195,128.42870311737062L39.869924999999995,128.7346981048584L39.9297,129.43491878509522L40.467675,128.90160903930663L40.52745,127.93563880920411L40.826325,128.09808292388917L40.945875,127.11141300201416L41.005649999999996,128.28256530761718L41.24475,125.49949741363525L41.72295,127.43837203979493L42.20115,125.11891345977783L42.260925,125.58367252349854L42.3207,126.96799221038819L42.5598,125.81876277923584L43.217325,95.04483146667481L43.57597500000001,92.63143539428711L43.87485,96.46281700134277L44.054175,92.66213874816894L44.771474999999995,96.56491813659667L45.130125,90.8574722290039L45.429,97.23077850341797L45.608325,100.7810546875L45.847425,95.69421348571777L46.086525,98.20148620605468L46.206075,95.29543914794922L47.341800000000006,98.47648620605469L47.640674999999995,92.92763862609863L47.70045,93.4808780670166L47.999325,95.09121589660644L48.238425,97.31880989074708L48.2982,94.60432205200195L48.41775,93.3942985534668L48.89595,90.19018936157227L48.955725,131.43741569519042L49.314375000000005,127.89072513580322L49.37415000000001,127.88839416503906L49.433924999999995,128.47558269500732L49.61325,126.97819938659669L50.151225000000004,124.57700786590576L50.629425,123.12714614868165L51.585825,117.47137603759765L51.824925,126.26470413208008L52.183575000000005,119.68050689697266L52.422675,73.72117385864257L52.542225,115.96922378540039L53.259525,108.17143211364746L53.3193,116.34225044250488L54.2757,117.17275161743164L55.052775000000004,116.60287857055664L55.112550000000006,116.69101486206054L55.232099999999996,116.82866592407227L55.59075,114.33367958068848L56.128724999999996,114.20260810852051L56.248275,114.85333709716797L56.30805,114.43774452209473L56.487375,117.24450607299805L56.846025000000004,116.10627479553223L57.384,114.83839874267578L57.563325,114.64308815002441L57.6231,114.34292373657226L58.161075,115.29560050964355L58.22085,114.9323886871338L59.117475,115.57575759887695L59.237024999999996,114.02587394714355L59.356575,114.6620044708252L60.193425,111.6058479309082L60.4923,114.10159378051758L60.611850000000004,112.88308143615723L60.791175,113.3650405883789L61.269375,114.67962417602538L61.628025,113.81108894348145L61.747575000000005,112.75640754699707L61.926899999999996,110.83459243774413L62.28555,114.14853210449219L62.584425,112.22469024658203L63.182175,115.5406063079834L63.301725,111.56325263977051L63.540825000000005,110.78776741027832L63.899474999999995,110.46381912231445L64.138575,109.54659156799316L64.19834999999999,112.42448654174805L64.497225,112.86771087646484L64.616775,109.35258598327637L64.67655,111.66813583374024L64.7961,113.54668846130372L64.91565,114.36822242736817L64.975425,111.90378837585449L65.2743,109.53348693847656L65.334075,110.87166976928711L65.87205,114.5532440185547L66.2307,109.17616233825683L66.35025,111.74782524108886L66.649125,109.07403602600098L66.94800000000001,114.6746726989746L67.06755,110.69012680053712L67.78485,111.78334159851075L68.20327499999999,109.03654327392579L68.26304999999999,113.66874237060547L68.3826,112.594775390625L68.442375,117.62232894897461L68.50215,114.77481002807617L68.561925,114.18813972473144L68.681475,116.34842300415039L68.8608,117.84048767089844L69.09989999999999,116.69621391296387L69.398775,79.69937744140626L69.5781,112.40675773620606L69.8172,116.87686309814453L69.99652499999999,115.4305576324463L70.17585,117.94669685363769L70.235625,119.36889324188232L70.41495,116.69053649902344L70.474725,117.25655746459961L70.65405,118.35668754577637L70.713825,119.1966552734375L71.0127,117.72504272460938L71.072475,117.65346450805664L71.4909,118.19777030944825L71.670225,113.89487800598144L71.909325,116.32190742492676L72.08865,112.41274986267089L72.32775,115.84570541381837L72.56685,114.19538650512695L72.80595000000001,114.8267375946045L72.985275,114.25658340454102L73.04505,114.45555305480957L73.104825,113.87009963989257L73.52325,115.4135757446289L73.8819,115.68334312438965L74.00144999999999,114.97970046997071L74.061225,114.5851894378662L74.300325,114.6243522644043L74.53942500000001,114.44094200134278L74.71875,114.18516883850097L74.77852499999999,113.66940116882324L74.8383,113.77171630859375L74.95785000000001,114.99399681091309L75.0774,117.80513916015624L75.615375,113.02136192321777L75.67514999999999,115.56446151733398L75.85447500000001,117.4846736907959L75.91425,113.76161193847656L75.974025,115.96182174682617L76.093575,115.43510208129882L76.15335,115.20471153259277L76.512,115.99213066101075L76.7511,112.09777297973633L76.810875,114.08757858276367L76.930425,113.23365020751953L77.04997499999999,113.40400619506836L77.22930000000001,114.44938888549805L77.289075,115.33261489868164L77.34885,113.87196273803711L77.408625,114.03593635559082L77.58794999999999,114.16143951416015L77.82705,113.1896198272705L78.12592500000001,112.67531242370606L78.1857,114.2811897277832L78.245475,113.89596061706543L78.60412500000001,114.48689002990723L78.962775,113.475634765625L79.201875,113.38000831604003L79.3812,112.46129112243652L79.62030000000001,87.35269508361816L79.8594,74.47151565551758L79.97895,78.02744827270507L80.277825,74.47856521606445L81.712425,69.12491912841796L81.831975,66.99998016357421L81.89175,71.62403030395507L82.13085,73.20740356445313L82.2504,78.419580078125L82.4895,75.68840408325195L82.60905,77.34339752197266L83.08725000000001,72.01065673828126L83.4459,69.8598777770996L83.685,68.97801132202147L84.103425,70.85588836669922L84.1632,71.04697341918944L84.222975,71.86713104248048L84.28275,71.75813140869141L84.58162499999999,78.46139907836914L84.70117499999999,72.06657485961915L84.8805,69.99043731689454L84.940275,71.7924560546875L85.059825,73.93875350952149L85.538025,73.88151779174805L85.59779999999999,74.65785064697266L85.777125,75.58321456909181L86.19555,72.59068450927734L86.37487499999999,78.44426193237305L86.91285,69.20361404418946L87.03240000000001,75.4040382385254L87.092175,64.0381072998047L87.15195000000001,68.44821166992188L87.331275,73.96603698730468L87.39104999999999,67.43876495361329L87.63015,70.64387283325195L87.92902500000001,64.34013061523439L87.9888,69.6251190185547L88.2279,75.25324478149415L88.287675,68.91421279907226L88.34745,76.91231689453124L88.407225,66.15524139404297L88.64632499999999,73.2326644897461L88.7061,67.77230148315431L88.885425,71.34382705688478L88.9452,72.65935058593749L89.4234,70.28378295898438L89.6625,63.860256958007824L89.78205,64.58102416992188L89.9016,70.10543746948241L89.961375,66.18152618408203L90.3798,70.61433181762695L90.43957499999999,72.57483139038087L90.49935,74.75181121826171L90.678675,75.14654464721679L91.156875,69.2393569946289L91.276425,66.12503738403319L91.51552500000001,74.76434936523438L91.5753,72.35504455566405L91.87417500000001,70.50704421997071L92.29260000000001,101.6659381866455L92.950125,112.15790405273438L93.069675,114.57980575561524L93.428325,109.17103881835938L93.4881,106.33628463745117L93.60764999999999,108.4698257446289L93.7272,111.28736305236816L93.9663,106.80508880615234L94.2054,102.47531166076661L94.32495,100.44033851623536L94.623825,106.89530639648437L94.68360000000001,107.24207763671875L94.743375,102.65753860473633L95.221575,98.38274803161622L95.580225,99.78132629394531L95.81932499999999,102.68760833740234L95.8791,101.10651779174805L95.938875,102.75306854248046L96.47685,105.45910949707032L96.5964,105.6001091003418L96.775725,103.6751594543457L97.134375,111.71785202026368L97.612575,99.8978832244873L97.73212500000001,106.63207664489747L98.927625,96.14076957702636L98.9874,94.80515060424804L99.2265,99.27299423217774L99.286275,98.61512756347656L99.34604999999999,93.12073364257813L100.42200000000001,99.11050186157226L100.720875,100.06279258728027L101.13929999999999,95.58459701538087L101.19907500000001,92.73075447082519L101.55772499999999,106.02776565551758L101.677275,97.06384658813477L101.97615,75.21849212646484L102.09570000000001,72.3087272644043L102.21525000000001,71.57429733276368L102.45435,63.589595794677734L103.0521,66.06255645751952L103.5303,70.54397888183593L103.590075,64.86599426269532L103.64985,66.9117431640625L103.7694,66.91168441772462L104.2476,97.43774604797363L104.426925,98.62307090759278L104.78557500000001,103.40976028442383L104.905125,100.23926239013672L105.024675,105.04026908874512L105.08445,102.77550964355468L105.26377500000001,102.3210018157959L105.38332500000001,101.59098205566406L105.56265,103.6764015197754L106.04085,106.16678886413574L106.459275,103.10818176269531L106.817925,102.8426399230957L107.05702500000001,100.24177169799805L107.1168,102.69866943359375L107.17657499999999,100.4954677581787L107.23635,101.69749336242675L107.595,102.68605575561523L108.19274999999999,106.05848999023438L108.3123,62.94872360229493L108.491625,70.41923522949219L108.5514,66.67920837402343L108.730725,66.1531852722168L109.089375,71.2043212890625L109.20892500000001,95.24448509216309L109.38825,94.02825126647949L109.56757499999999,95.31866493225098L109.74690000000001,96.55705032348632L109.806675,98.94426651000977L110.882625,92.6537296295166L111.54015,103.73025093078613L111.77925,101.7178279876709L112.6161,99.12834396362305L112.675875,97.90972671508788L112.8552,100.08381538391113L112.91497500000001,100.65052871704101L113.03452499999999,102.03984603881835L113.0943,99.41888236999512L114.2898,63.233525848388666L114.349575,62.084808349609375L114.40934999999999,54.93829956054688L114.708225,59.77858657836913L114.88755,59.79387741088868L115.12665,57.873476409912115L115.2462,58.70722122192382L115.48530000000001,57.67585372924805L115.545075,54.5501708984375L115.7244,56.15891418457031L115.96350000000001,56.71462097167969L116.08305,58.132682037353504L116.9199,61.17363586425782L117.457875,57.16450042724608L117.51765,59.58774490356444L118.175175,51.49204635620117L118.65337500000001,61.17845306396484L118.71315,67.80945434570313L118.89247499999999,56.86079864501954L119.012025,59.0466323852539L119.0718,58.259893035888666L119.55000000000001,58.394799804687494L119.609775,60.774446105957026L119.66954999999999,64.11576156616212L119.90865,61.46691436767577L120.0282,57.64417266845703L120.14775,52.605566406250006L120.62595,62.213387298583996L120.924825,58.305228424072254L120.9846,58.038243103027355L121.16392499999999,55.228028106689464L121.58235,64.60902938842773L122.29965,57.59908065795898L122.59852500000001,53.939360046386724L122.6583,56.97699890136718L122.77785,62.1185287475586L122.83762499999999,57.86163482666015L123.196275,63.77296829223633L123.61470000000001,59.044584655761724L123.674475,62.047537994384754L124.21245,61.31423263549806L124.45155,56.352021789550776L124.5711,56.22550735473632L124.81020000000001,61.06303329467772L125.348175,60.70671157836915L125.7666,59.55775909423829L125.826375,59.372473144531256L126.12525,55.75809631347656L126.60345,64.14234008789063L126.723,58.41014938354493L127.141425,59.00341186523437L127.2012,60.60432510375978L127.4403,64.81280364990235L127.739175,61.12827529907227L127.9185,63.3539894104004L128.03805,58.245005035400396L128.217375,56.02015533447266L128.39669999999998,65.8609474182129L128.6358,62.30406646728517L129.114,63.61286773681641L129.5922,66.22180099487304L129.71175,61.06363754272462L129.8313,60.264099884033214L130.010625,61.96595611572266L130.0704,59.63571548461914L130.42905,57.20625228881835L130.488825,51.093863677978504L130.967025,57.48091659545898L131.14635,53.68345260620117L131.20612500000001,58.74154586791991L131.2659,55.249537658691395L131.325675,57.39872207641602L131.445225,60.641234588623036L131.62455,54.78950347900391L132.042975,59.34979705810548L132.10275000000001,53.42247619628907L132.521175,57.83091888427734L132.58095,59.29386215209962L132.640725,57.650441741943354L133.1787,58.67735290527344L133.4178,60.590855407714855L133.53735,57.23208389282226L133.597125,55.73615875244141L133.716675,55.355499267578125L134.01555000000002,55.08778381347656L134.075325,59.6909034729004L134.194875,60.12425842285157L134.25465,48.62969818115235L134.314425,54.679203033447266L134.6133,54.95048522949219L135.45015,59.50252914428711L135.988125,63.89547958374024L136.346775,57.81653442382813L136.7652,62.53391571044921L136.824975,63.077260589599604L137.36295,64.22510528564453L137.781375,57.57862014770507L138.259575,51.40730056762695L138.31935,56.10757827758789L138.498675,58.92363433837892L138.9171,49.65211944580079L139.03665,59.06878814697265L139.27575000000002,55.256343841552734L139.8735,59.38369369506836L139.933275,54.316796874999994L140.1126,64.35341567993163L140.411475,55.70424270629883L140.650575,56.05963287353515L141.42765,54.79485778808595L141.5472,59.27406463623046L141.606975,51.7723503112793L141.965625,52.82745971679688L142.0254,51.82048034667969L142.085175,54.456025695800776L142.204725,56.31355972290038L142.324275,60.81865692138672L143.041575,53.94288482666016L143.81865,52.052142333984364L144.117525,52.285667419433594L144.476175,40.45619430541993L144.834825,55.087985229492176L144.8946,52.686199951171886L145.25325,53.527657318115246L145.49235000000002,56.83686370849608L145.61190000000002,56.559152984619146L145.73145,51.76414260864257L146.0901,52.951607513427746L146.269425,55.33583602905273L146.38897500000002,47.46559753417969L146.5683,47.2603630065918L146.747625,49.32254409790039L146.92695,47.67140274047853L147.464925,61.717626953125006L147.584475,50.439723205566395L148.301775,49.05580215454103L148.36155,52.482769775390636L148.421325,50.238332366943354L149.258175,54.75107498168944L149.497275,49.564671325683605L149.736375,51.58588943481445L149.97547500000002,57.558847808837896L150.03525,48.50761489868165L150.21457500000002,53.536016082763666L150.334125,49.785070800781256L150.45367499999998,53.036462402343744L150.931875,54.85002899169922L151.051425,53.878305816650396L151.23075,56.90988540649414L151.410075,48.47001724243165L151.58939999999998,55.540273284912104L151.70895000000002,47.716041564941406L151.888275,44.38176727294922L152.0676,61.346165466308605L152.127375,49.29225616455079L153.024,44.88595352172851L153.442425,46.86695556640626L153.7413,48.34284820556641L153.801075,42.58620223999023L153.86085,45.48506546020508L153.9804,46.601220703124994L154.040175,46.07659912109375L154.159725,43.0903465270996L154.27927499999998,37.664736175537115L154.518375,49.09392852783202L154.757475,47.28789825439452L155.05635,52.13669509887694L155.17589999999998,41.85520477294921L155.594325,43.77302093505858L155.713875,49.163442230224604L155.77365,52.62491073608399L155.952975,40.04664001464843L156.072525,41.86468811035155L156.311625,42.201573181152355L156.49095,56.25604705810548L156.6105,49.375801849365246L156.73005,44.96784591674805L156.78982499999998,50.03771362304687L157.387575,47.98759231567382L157.44735,42.92936477661132L157.68644999999998,53.581670379638666L157.865775,39.05199737548827L158.04510000000002,54.880946350097645L158.10487500000002,45.40981140136719L158.2842,52.46643829345703L158.343975,47.56856307983398L158.463525,49.4046630859375L158.7624,45.082241821289074L158.822175,49.41515350341797L159.24060000000003,47.63081741333008L159.300375,39.48911209106444L159.539475,54.104403686523426L159.659025,45.013827514648426L159.778575,48.76814651489258L160.017675,45.83855895996095L160.615425,38.71461715698243L160.734975,48.226689910888666L160.854525,45.15924987792968L160.9143,39.13726348876952L161.1534,53.490504455566395L161.33272499999998,48.76883468627929L161.810925,52.59376678466796L162.050025,46.23511352539063L162.22934999999998,45.359314727783214L162.886875,50.17872161865233L163.12597499999998,51.81503372192384L163.24552500000001,49.62559127807617L163.42485,46.94919204711914L163.5444,54.95996856689453L163.604175,44.96541213989258L163.72372499999997,46.52191314697265L163.843275,44.27928009033204L163.90305,52.08345413208008L164.02259999999998,43.05501480102538L164.14215000000002,43.85365447998046L164.201925,44.44795761108398L164.441025,40.86140136718751L164.5008,43.01287689208985L164.62034999999997,37.95686492919921L164.799675,40.381930541992176L165.09855,43.73023681640626L165.81584999999998,44.3530403137207L166.05495,42.72559051513673L166.234275,43.565142822265614L166.83202500000002,44.76772232055663L167.190675,46.08534393310546L167.25045,42.689453125L167.37,45.10172882080079L167.549325,36.983698272705084L167.72865000000002,37.49027633666992L167.788425,44.600026702880854L167.8482,47.30292053222655L168.44595,45.45811767578124L168.50572499999998,41.47508239746094L168.5655,45.39128952026368L168.68505,45.219825744628906L169.40234999999998,41.704125976562494L169.462125,32.23577728271485L169.52190000000002,36.42678298950196L169.58167500000002,42.95992965698241L170.05987499999998,51.5525047302246L170.59785,31.6763946533203L170.896725,38.238377380371105L171.61402500000003,36.94629364013673L172.450875,37.709140014648426L172.6302,48.05210418701171L172.689975,44.81547470092772L172.74974999999998,38.547030639648426L172.8693,41.712619018554676L173.3475,35.340026092529286L173.46705,36.57756805419922L173.5866,32.083825683593744L173.70615,41.74046478271484L174.30390000000003,48.77757110595704L174.78209999999999,41.94916534423828L174.841875,43.951190185546864L175.14075,41.35019607543944L175.4994,41.068247222900396L175.9776,40.14591293334962L176.33624999999998,33.360543060302746L176.39602499999998,36.73964920043946L176.515575,42.14004898071289L176.635125,44.5056297302246L176.934,34.601408386230474L178.069725,31.285689544677723L178.18927499999998,41.638053131103504L178.428375,32.28721389770507L178.48815,36.990806579589844L179.08589999999998,33.2225311279297L179.20545,36.63285675048829L179.384775,42.48319473266602L179.44455000000002,39.425481414794916L179.504325,40.693294525146484L180.102075,39.501163482666016L180.16185,36.12208251953126L180.34117500000002,37.32988204956055L180.460725,35.73014373779296L180.699825,40.610688781738276L180.819375,29.767902374267578L180.9987,28.569258880615223L181.11825,31.247412109375006L181.23780000000002,31.020340728759777L181.35735,35.79313659667969L181.895325,31.049638366699213L182.13442500000002,43.38568115234375L182.373525,36.134234619140614L182.493075,45.33038635253905L182.67239999999998,25.962860107421875L182.85172500000002,33.104190826416016L183.210375,44.19502944946288L183.27015,45.224575805664074L183.50925,37.14121398925781L183.68857500000001,37.872312164306635L183.8679,39.74933319091798L183.98745000000002,37.54852752685548L184.52542499999998,32.70338973999023L184.70475,38.88594665527344L184.764525,32.46161499023438L184.8243,34.283330535888666L184.88407500000002,36.64933090209962L185.0634,30.437887573242193L185.3025,37.51060256958007L185.66115,46.97690353393554L185.720925,43.63822326660156L185.90025,35.11003417968749L186.37845000000002,28.970462799072266L186.67732500000002,34.18931121826171L186.85665,34.5163688659668L187.035975,36.37603454589845L187.09575,36.74920806884765L187.21529999999998,35.89377746582031L187.394625,30.93520889282226L187.4544,37.679901123046875L187.57395000000002,32.40661163330077L187.9326,23.722543334960932L188.11192499999999,24.56530151367187L188.29125,27.630492401123036L188.351025,39.44169540405272L188.590125,35.61629333496094L188.94877499999998,32.33228912353516L189.72585,30.039679718017567L189.96495000000002,35.08678741455077L190.0845,32.9915657043457L190.383375,32.575096130371094L190.68225,32.84446487426757L191.220225,34.05565490722657L191.45932499999998,30.925801086425793L191.698425,32.102272033691406L191.87775,30.195995330810547L192.774375,36.12690811157228L193.372125,33.177330017089844L193.4319,28.992786407470703L193.491675,32.555323791503895L193.671,40.258000946044916L194.02965,31.0211212158203L194.3883,35.29312973022462L194.448075,30.71221618652345L194.50785000000002,39.2059295654297L194.56762500000002,31.319082641601568L194.6274,36.4537223815918L194.687175,28.01282196044923L194.74695,41.01122131347657L195.22515,30.363909149169928L196.59997500000003,83.41370697021483L196.65975,83.93171958923341L196.719525,85.3492519378662L197.13795,80.8232536315918L197.795475,77.9792594909668L197.915025,76.09860458374024L198.15412500000002,68.78207550048828L198.63232499999998,48.07238006591797L198.69209999999998,54.345037078857416L198.871425,60.43815689086915L198.990975,54.57523880004882L199.05075000000002,62.2110710144043L199.1703,56.42410354614259L200.306025,72.45591201782227L200.60490000000001,65.35762557983398L200.784225,79.1522476196289L200.96355,82.34772949218751L201.50152500000002,79.68370895385743L201.5613,72.09870910644531L201.91995,71.40213699340819L202.0395,70.52548217773438L202.099275,75.14478225708007L202.457925,70.7904197692871L202.63725000000002,82.59148483276368L202.697025,72.12870330810546L202.9959,78.17938308715821L203.11544999999998,77.01722946166993L203.235,73.64469451904296L203.414325,72.24983825683594L203.4741,72.97775573730468L203.9523,69.80343093872071L204.251175,74.61081161499024L204.370725,75.23628387451171L204.43050000000002,72.48703079223634L204.490275,75.89738159179689L205.1478,63.8662239074707L205.74555,66.35810089111328L206.22375,67.69628372192383L207.239925,66.33389739990236L207.5388,69.15423355102538L207.65834999999998,67.7093421936035L207.718125,67.78139038085936L207.89745,62.06181335449219L208.4952,53.91718750000001L208.85385,57.74830474853516L209.09295,62.64174041748046L209.391825,59.554486083984386L209.511375,65.28933715820312L209.63092500000002,57.697178649902355L209.750475,63.88414154052734L209.87002500000003,68.67102813720703L210.10912499999998,63.80534591674805L210.1689,63.2801368713379L210.34822499999999,67.35438842773436L210.408,64.78631744384765L210.46777500000002,61.429996490478516L210.706875,62.82332534790038L210.826425,56.26464080810547L211.00574999999998,65.42339630126952L211.065525,61.56753005981446L211.185075,69.16510162353515L211.48395,69.0756980895996L211.6035,68.9509376525879L211.66327500000003,69.4155372619629L211.72305,64.93867187500001L212.0817,63.28666610717772L212.20125,75.2625602722168L212.380575,69.86113662719725L212.91855,73.28993377685546L213.097875,69.54675979614257L213.21742500000002,72.41948089599609L213.336975,75.62973327636718L213.45652499999997,52.76183166503907L213.576075,66.78335723876953L214.11405000000002,67.02571105957031L214.35314999999997,60.099215698242176L214.4727,57.60496368408204L214.65202499999998,69.13755798339844L215.130225,60.21651535034181L215.369325,49.840451812744135L215.608425,50.49763870239258L215.967075,62.655117797851574L216.38549999999998,30.436838531494146L216.50505,45.34401550292969L216.80392500000002,58.98854064941406L217.22235,45.03284454345703L217.401675,60.67765731811522L217.46145,59.291537475585926L217.760325,57.503382873535145L217.8201,55.89753494262695L217.879875,53.82557678222656L217.999425,46.4085662841797L218.17875,43.486582183837896L218.477625,54.52530441284179L218.65695,43.81333770751954L218.716725,49.73880386352539L218.836275,54.66391220092774L219.194925,58.06779251098632L219.792675,54.52388610839844L220.21110000000002,52.760891723632824L220.39042500000002,45.02425079345704L220.45020000000002,56.18258895874024L220.868625,48.94488067626952L220.92839999999998,46.84181213378906L220.98817499999998,47.19878005981445L221.04795000000001,50.945411682128906L221.34682500000002,58.465824127197266L221.52615,38.06255798339845L222.96075,42.19077224731444L223.14007500000002,52.87470855712891L223.259625,46.06949081420899L223.5585,40.57127838134767L223.73782500000002,42.169833374023426L223.79760000000002,37.097003173828114L223.91715,38.376615905761724L223.976925,41.668148040771484L224.39535,45.75122833251953L224.51489999999998,41.19295730590821L224.63445000000002,38.43281097412108L225.17242499999998,32.43702545166016L225.47129999999999,24.17138214111327L225.53107500000002,35.061031341552734L225.889725,42.44725036621094L226.009275,40.497409057617176L226.128825,46.5573875427246L226.248375,43.990634155273426L226.48747500000002,49.4273811340332L226.6668,43.81703872680663L226.9059,50.31816864013672L227.443875,49.79107971191405L227.50365,52.59958267211914L227.563425,46.978934478759754L227.92207499999998,58.65472717285155L228.400275,45.65079727172852L228.639375,36.121335601806635L228.758925,45.126779937744146L228.81869999999998,53.90226593017579L228.878475,51.79945755004883L229.117575,61.734226989746105L229.41645,44.44997177124023L229.834875,47.33479461669921L230.313075,51.46811141967774L230.552175,54.37305908203126L230.791275,39.570182037353504L230.910825,47.792185211181646L231.269475,64.57573699951172L231.4488,61.04041595458983L231.56835,51.121709442138666L231.6879,53.534908294677734L231.80745,55.895269012451166L231.986775,57.33346328735351L232.106325,61.8610855102539L232.28565,62.35717315673827L232.52475,67.91409835815429L233.00295,61.63698501586913L233.30182499999998,67.17691574096679L233.3616,67.65830001831054L233.6007,69.06881637573241L234.019125,57.42024002075195L234.67665,65.85868988037109L234.85597500000003,72.63678359985352L234.91575,70.13234329223633L235.09507499999998,64.44871063232421L235.39395,57.67572784423828L235.75259999999997,61.06794281005858L235.812375,61.418767547607416L236.05147499999998,60.68876876831055L236.17102500000001,72.08615417480468L236.529675,43.97101287841798L236.58945,55.47295837402345L236.709,49.194250488281256L236.94809999999998,61.83587493896485L237.366525,57.41867904663087L237.725175,51.21175079345704L237.9045,58.343774414062494L238.26315,53.55155868530272L238.74134999999998,45.919016265869146L238.920675,62.89971237182618L239.040225,62.72809753417968L239.10000000000002,65.2456298828125L239.398875,62.861468505859364L239.45865,66.12605285644531L239.63797499999998,58.3565643310547L239.75752500000002,70.89835357666016L239.8173,60.8418113708496L239.93685,68.46723709106445L240.23572499999997,66.5350112915039L240.833475,73.42616653442383L241.192125,57.76632308959961L241.311675,72.1754066467285L241.37144999999998,65.0721519470215L241.61055,66.21638793945311L241.670325,33.758079528808594L241.909425,81.23389053344727L242.028975,77.125146484375L242.387625,69.18935546875L242.44740000000002,71.76533203125001L242.626725,67.9699577331543L242.865825,65.74966506958009L243.583125,75.25206985473633L243.88199999999998,72.52460327148438L243.941775,71.72013092041016L244.061325,70.5863265991211L244.5993,67.84458465576171L244.659075,71.22143325805663L245.01772499999998,73.55278167724609L245.0775,70.6360092163086L245.91434999999998,87.63497543334961L246.15345,61.05195541381835L246.273,79.43005905151367L246.39255,74.3622055053711L246.57187499999998,61.76847610473632L246.7512,77.82087097167968L247.289175,92.68711013793946L247.647825,86.58636169433595L247.767375,88.13468856811524L248.4249,88.32855567932128L248.484675,87.53607177734375L248.843325,77.69177169799804L249.26174999999998,80.04960632324219L250.69635,78.0029426574707L250.756125,79.35605545043944L250.875675,81.13636322021483L251.05499999999998,67.8173599243164L251.17455,78.16949691772462L252.429825,69.90770568847657L252.60915,70.59262084960938L252.84824999999998,79.4058723449707L252.90802499999998,75.1491714477539L252.9678,79.07826919555663L253.08735,83.15050659179687L253.32645,84.54177513122559L253.505775,78.01019363403321L253.625325,79.11338272094727L253.74487499999998,76.01211318969726L254.16330000000002,79.14054870605469L254.4024,74.00759582519532L254.581725,78.70422286987304L254.8806,76.33008193969727L255.3588,77.89923858642578L255.59789999999998,77.34015808105468L255.71745,72.51354217529297L255.837,70.05660247802734L255.896775,71.1257354736328L256.255425,70.09284057617188L256.494525,67.21622543334962L256.614075,75.08725280761718L256.733625,73.1850799560547L256.91295,70.81598281860352L257.45092500000004,70.55127182006837L257.570475,76.51113815307616L257.63025,74.88351211547851L257.86935,66.22619857788087L258.168225,71.89795608520507L258.287775,71.76663284301759L258.885525,73.16765747070312L259.00507500000003,74.22397537231444L259.124625,70.46123046874999L259.9017,69.70173263549805L260.1408,72.65557403564452L260.26035,72.19100799560547L260.8581,68.73795700073242L261.156975,73.7396453857422L261.5754,74.17493896484376L261.754725,75.91804351806641L261.874275,73.8062889099121L262.23292499999997,72.36951293945313L263.069775,66.64226531982422L263.12955,70.16530838012696L263.189325,67.45109329223632L263.308875,66.55221557617188L263.4882,69.12357635498046L263.60775,68.5387062072754L263.9664,72.22324295043944L264.20550000000003,71.23438262939453L264.265275,71.94160461425781L264.623925,70.61620330810547L264.68370000000004,69.96958236694337L264.743475,70.4017120361328L265.04235,71.31109695434571L265.102125,71.94768905639648L265.341225,71.92715301513672L265.99875000000003,74.05133666992188L266.3574,44.26008682250978L266.5965,63.37180633544921L266.71605,62.25759811401366L266.895375,69.32730026245116L267.014925,70.75601119995116L267.37357499999996,68.35420913696288L267.5529,65.57897338867187L267.79200000000003,70.65690612792969L268.03110000000004,73.06973571777343L268.15065,74.3188507080078L268.329975,67.44516830444337L268.449525,66.37846908569335L268.688625,75.07024154663085L268.808175,71.32825927734376L268.9875,69.65017013549806L269.286375,67.7400161743164L269.52547500000003,73.59978713989258L269.58525000000003,71.92357788085937L269.7048,68.47937240600587L270.242775,71.54453811645507L270.30255,62.27106781005858L270.96007499999996,59.91002731323243L271.079625,62.346531677246105L271.1394,60.11444778442382L271.557825,50.5425880432129L271.677375,60.89229965209961L271.73715,70.03091354370116L271.796925,65.63928909301757L271.8567,70.76852416992188L272.0958,70.19457244873047L272.21535,61.36921081542968L273.5304,69.00307083129883L273.709725,71.6617286682129L274.2477,61.08092575073243L274.427025,64.4899757385254L274.546575,69.07030181884767L274.785675,69.41175231933593L274.84544999999997,64.20207672119142L274.905225,67.3569480895996L275.02477500000003,70.41226959228516L275.502975,67.15989608764647" style="fill: none;" fill="none"></path></g></g></g></g></g></g><g transform="translate(31, 176)" clip-path="url(#clip_1)"><clipPath id="clip_1"><rect width="298" height="24"></rect></clipPath><g><g><line x1="0" y1="0" x2="0" y2="5" style="visibility: inherit;" fill="rgb(0, 0, 0)" stroke="rgb(204, 204, 204)" stroke-width="1px"></line><line x1="29.887500000000003" y1="0" x2="29.887500000000003" y2="5" style="visibility: inherit;" fill="rgb(0, 0, 0)" stroke="rgb(204, 204, 204)" stroke-width="1px"></line><line x1="59.775000000000006" y1="0" x2="59.775000000000006" y2="5" style="visibility: inherit;" fill="rgb(0, 0, 0)" stroke="rgb(204, 204, 204)" stroke-width="1px"></line><line x1="89.6625" y1="0" x2="89.6625" y2="5" style="visibility: inherit;" fill="rgb(0, 0, 0)" stroke="rgb(204, 204, 204)" stroke-width="1px"></line><line x1="119.55000000000001" y1="0" x2="119.55000000000001" y2="5" style="visibility: inherit;" fill="rgb(0, 0, 0)" stroke="rgb(204, 204, 204)" stroke-width="1px"></line><line x1="149.4375" y1="0" x2="149.4375" y2="5" style="visibility: inherit;" fill="rgb(0, 0, 0)" stroke="rgb(204, 204, 204)" stroke-width="1px"></line><line x1="179.325" y1="0" x2="179.325" y2="5" style="visibility: inherit;" fill="rgb(0, 0, 0)" stroke="rgb(204, 204, 204)" stroke-width="1px"></line><line x1="209.21249999999998" y1="0" x2="209.21249999999998" y2="5" style="visibility: inherit;" fill="rgb(0, 0, 0)" stroke="rgb(204, 204, 204)" stroke-width="1px"></line><line x1="239.10000000000002" y1="0" x2="239.10000000000002" y2="5" style="visibility: inherit;" fill="rgb(0, 0, 0)" stroke="rgb(204, 204, 204)" stroke-width="1px"></line><line x1="268.9875" y1="0" x2="268.9875" y2="5" style="visibility: inherit;" fill="rgb(0, 0, 0)" stroke="rgb(204, 204, 204)" stroke-width="1px"></line><line x1="298.875" y1="0" x2="298.875" y2="5" style="visibility: inherit;" fill="rgb(0, 0, 0)" stroke="rgb(204, 204, 204)" stroke-width="1px"></line></g><g transform="translate(0, 8)"><text x="0" y="0" dx="0em" dy="0.95em" style="text-anchor: middle; visibility: hidden; font-family: &quot;Helvetica Neue&quot;, sans-serif; font-size: 12px; font-weight: 200;" fill="rgb(50, 49, 63)" stroke="none" stroke-width="1px">-500</text><text x="29.887500000000003" y="0" dx="0em" dy="0.95em" style="text-anchor: middle; visibility: inherit; font-family: &quot;Helvetica Neue&quot;, sans-serif; font-size: 12px; font-weight: 200;" fill="rgb(50, 49, 63)" stroke="none" stroke-width="1px">0</text><text x="59.775000000000006" y="0" dx="0em" dy="0.95em" style="text-anchor: middle; visibility: inherit; font-family: &quot;Helvetica Neue&quot;, sans-serif; font-size: 12px; font-weight: 200;" fill="rgb(50, 49, 63)" stroke="none" stroke-width="1px">500</text><text x="89.6625" y="0" dx="0em" dy="0.95em" style="text-anchor: middle; visibility: inherit; font-family: &quot;Helvetica Neue&quot;, sans-serif; font-size: 12px; font-weight: 200;" fill="rgb(50, 49, 63)" stroke="none" stroke-width="1px">1k</text><text x="119.55000000000001" y="0" dx="0em" dy="0.95em" style="text-anchor: middle; visibility: inherit; font-family: &quot;Helvetica Neue&quot;, sans-serif; font-size: 12px; font-weight: 200;" fill="rgb(50, 49, 63)" stroke="none" stroke-width="1px">1.5k</text><text x="149.4375" y="0" dx="0em" dy="0.95em" style="text-anchor: middle; visibility: inherit; font-family: &quot;Helvetica Neue&quot;, sans-serif; font-size: 12px; font-weight: 200;" fill="rgb(50, 49, 63)" stroke="none" stroke-width="1px">2k</text><text x="179.325" y="0" dx="0em" dy="0.95em" style="text-anchor: middle; visibility: inherit; font-family: &quot;Helvetica Neue&quot;, sans-serif; font-size: 12px; font-weight: 200;" fill="rgb(50, 49, 63)" stroke="none" stroke-width="1px">2.5k</text><text x="209.21249999999998" y="0" dx="0em" dy="0.95em" style="text-anchor: middle; visibility: inherit; font-family: &quot;Helvetica Neue&quot;, sans-serif; font-size: 12px; font-weight: 200;" fill="rgb(50, 49, 63)" stroke="none" stroke-width="1px">3k</text><text x="239.10000000000002" y="0" dx="0em" dy="0.95em" style="text-anchor: middle; visibility: inherit; font-family: &quot;Helvetica Neue&quot;, sans-serif; font-size: 12px; font-weight: 200;" fill="rgb(50, 49, 63)" stroke="none" stroke-width="1px">3.5k</text><text x="268.9875" y="0" dx="0em" dy="0.95em" style="text-anchor: middle; visibility: inherit; font-family: &quot;Helvetica Neue&quot;, sans-serif; font-size: 12px; font-weight: 200;" fill="rgb(50, 49, 63)" stroke="none" stroke-width="1px">4k</text><text x="298.875" y="0" dx="0em" dy="0.95em" style="text-anchor: middle; visibility: hidden; font-family: &quot;Helvetica Neue&quot;, sans-serif; font-size: 12px; font-weight: 200;" fill="rgb(50, 49, 63)" stroke="none" stroke-width="1px">4.5k</text></g><line x1="0" y1="0" x2="298.875" y2="0" fill="rgb(0, 0, 0)" stroke="rgb(204, 204, 204)" stroke-width="1px"></line></g></g></g></g></svg>